<?xml version="1.0" encoding="UTF-8" standalone="no"?>
<svg
   version="1.0"
   width="32mm"
   height="27mm"
   id="svg990"
   sodipodi:docname="Elfe weiß.svg"
   inkscape:export-filename="/Users/sabinekrenn/Documents/3 VORLAGEN Produkte/Logo/Elfe/weiß.png"
   inkscape:export-xdpi="600"
   inkscape:export-ydpi="600"
   inkscape:version="1.1 (c4e8f9e, 2021-05-24)"
   xmlns:inkscape="http://www.inkscape.org/namespaces/inkscape"
   xmlns:sodipodi="http://sodipodi.sourceforge.net/DTD/sodipodi-0.dtd"
   xmlns="http://www.w3.org/2000/svg"
   xmlns:svg="http://www.w3.org/2000/svg">
  <sodipodi:namedview
     id="namedview992"
     pagecolor="#ffffff"
     bordercolor="#666666"
     borderopacity="1.0"
     inkscape:pageshadow="2"
     inkscape:pageopacity="0.0"
     inkscape:pagecheckerboard="0"
     inkscape:document-units="mm"
     showgrid="false"
     inkscape:zoom="6.1246142"
     inkscape:cx="43.349669"
     inkscape:cy="40.900535"
     inkscape:window-width="1377"
     inkscape:window-height="847"
     inkscape:window-x="0"
     inkscape:window-y="25"
     inkscape:window-maximized="0"
     inkscape:current-layer="svg990" />
  <defs
     id="defs984">
    <pattern
       id="EMFhbasepattern"
       patternUnits="userSpaceOnUse"
       width="6"
       height="6"
       x="0"
       y="0" />
  </defs>
  <path
     style="fill:#ffffff;fill-rule:nonzero;fill-opacity:1;stroke:none"
     d="  M 108.87919,56.799579   C 108.79919,56.239583 108.4792,55.439589 108.3992,54.959593   C 107.9192,53.199606 106.23921,50.959623 104.55923,49.679632   C 103.11924,48.63964 101.91925,48.239643 99.759261,47.839646   C 97.679276,47.439649 95.039296,47.599647 92.959311,47.119651   C 92.799313,47.119651 91.999319,46.799653 91.75932,46.239657   C 91.279324,45.359664 90.47933,42.399686 90.39933,42.399686   C 89.999333,41.519692 89.999333,41.519692 90.719328,40.959697   C 91.199324,40.5597 91.359323,39.919704 91.119325,39.359708   C 90.879327,38.879712 90.639329,38.399716 90.47933,37.919719   C 89.919334,36.639729 89.279339,36.639729 87.919349,36.959726   C 87.919349,36.959726 85.839364,37.039726 83.039385,38.559714   C 82.959385,38.559714 81.839394,39.19971 81.759394,39.279709   C 80.879401,40.159703 80.879401,40.719698 81.279398,41.679691   C 81.519396,42.159688 81.759394,42.559685 81.999393,43.039681   C 82.479389,44.079673 82.959385,44.239672 84.079377,43.999674   C 84.239376,43.919675 84.559374,43.999674 84.639373,44.159673   C 84.879371,44.399671 87.039355,47.679647 86.879356,48.63964   C 86.639358,49.759631 86.879356,48.959637 86.799357,49.119636   C 86.159362,50.319627 85.599366,50.959623 84.799372,52.719609   C 81.359397,59.999556 82.719387,63.519529 82.719387,63.679528   C 82.719387,63.679528 82.719387,63.759528 82.719387,63.759528   C 82.799387,64.239524 83.279383,65.039518 83.279383,65.039518   C 84.239376,66.719506 85.679365,68.079496 87.439352,68.87949   C 89.759335,69.999481 92.239317,69.919482 94.719298,69.519485   C 98.239272,68.87949 104.07923,65.359516 105.11922,64.399523   C 107.5192,62.239539 109.43919,60.079555 108.87919,56.799579   z  M 106.55921,59.039563   C 106.15921,60.479552 105.67922,61.279546 104.47923,62.319538   C 102.63924,63.999526 99.039266,61.839542 96.719284,62.639536   C 94.799298,63.279531 93.519307,64.399523 91.119325,64.719521   C 89.03934,65.119518 86.879356,63.999526 85.759365,62.879534   C 85.679365,62.799535 83.919378,60.079555 86.239361,53.919601   C 86.719358,52.63961 87.039355,51.839616 87.75935,50.639625   C 88.079348,49.99963 89.11934,48.719639 88.799342,48.159643   C 88.399345,47.359649 86.319361,44.079673 86.159362,43.839675   C 85.759365,42.959682 84.639373,42.799683 83.67938,43.119681   C 83.359383,43.19968 83.279383,42.799683 83.119384,42.479685   C 82.879386,41.919689 82.559388,41.759691 82.31939,41.199695   C 82.159391,40.879697 82.31939,40.399701 82.719387,40.639699   C 84.559374,41.519692 87.839349,40.639699 88.639343,38.159717   C 88.719343,37.75972 88.959341,37.679721 89.11934,37.999719   C 89.359338,38.559714 89.439337,39.039711 89.679336,39.519707   C 89.839335,39.919704 89.999333,40.159703 89.519337,40.399701   C 88.799342,40.719698 88.879342,41.439693 89.199339,42.159688   C 89.359338,42.479685 90.159332,45.759661 90.639329,46.639655   C 90.799327,47.119651 91.199324,47.679647 91.519322,48.079644   C 92.159317,48.719639 94.239302,49.199636 95.119295,49.439634   C 97.759276,49.91963 99.119266,49.039637 101.51925,50.239628   C 105.27922,52.079614 107.3592,55.839586 106.55921,59.039563   z "
     id="path986" />
  <path
     style="fill:#ffffff;fill-rule:nonzero;fill-opacity:1;stroke:none"
     d="  M 84.959371,46.079659   C 77.359427,51.679617 71.199473,54.959593 60.399553,56.159584   C 57.199576,56.479582 51.439619,55.599588 51.439619,55.599588   C 51.439619,55.599588 53.439604,52.479611 54.799594,48.079644   C 56.239583,43.759676 55.519589,39.19971 55.119592,36.159732   C 54.959593,35.519737 54.719595,32.079762 54.719595,32.079762   C 54.719595,32.079762 59.999556,35.839735 62.799535,36.799727   C 67.919497,38.639714 75.279442,38.159717 80.319405,32.959756   C 83.919378,29.119784 81.439397,26.799801 82.799387,25.119814   C 84.159377,23.519826 87.519352,18.479863 86.479359,13.4399   C 85.759365,9.9999259 83.839379,5.0399627 77.359427,2.7199799   C 70.879475,0.39999704 60.479552,1.6799876 56.479582,5.0399627   C 51.919615,8.8799342 49.91963,14.239895 50.159628,17.759868   C 50.399627,17.679869 40.079703,1.4399893 29.75978,0.079999407   C 19.359857,-1.1999911 11.919912,8.7999348 11.919912,8.7999348   C 11.919912,8.7999348 -6.5599514,16.479878 2.4799816,38.959711   C 6.2399538,48.319642 18.399864,55.119592 27.279798,57.439575   C 38.319716,60.319553 43.999674,59.679558 43.999674,59.679558   C 43.999674,59.679558 39.039711,64.079525 35.759735,68.479493   C 31.839764,73.759454 29.999778,78.799416 31.03977,85.279368   C 32.639758,96.079288 38.879712,99.439263 48.719639,99.439263   C 55.679588,99.439263 65.279516,92.639314 73.599455,86.159362   C 81.919393,79.67941 85.519367,79.199413 91.039326,84.639373   C 100.39926,93.759305 99.91926,101.83925 106.63921,100.55926   C 113.35916,99.199265 119.75911,100.31926 120.15911,99.279265   C 120.8791,97.359279 116.95913,95.199295 115.11915,95.599292   C 113.27916,95.999289 106.47921,99.83926 102.71924,94.959297   C 98.159273,89.279339 97.039281,79.759409 86.799357,77.439426   C 76.479433,75.119444 70.879475,88.319346 60.319553,90.719328   C 49.759631,93.11931 41.359694,87.999348 41.359694,79.67941   C 41.359694,71.359471 43.119681,68.639492 45.039666,65.519515   C 46.959652,62.399538 48.879638,59.759557 48.879638,59.759557   C 48.879638,59.759557 56.799579,60.239554 62.399538,59.199561   C 80.9594,55.679588 88.479345,52.399612 89.839335,48.55964   C 90.319331,47.19965 85.919364,45.359664 84.959371,46.079659   z  M 57.439575,21.199843   C 57.759572,19.919852 53.439604,16.799876 59.519559,11.679913   C 60.079555,11.919912 61.359545,19.279857 62.239539,19.039859   C 62.559537,18.95986 59.679558,12.079911 66.239509,8.3999378   C 74.159451,3.919971 80.559403,9.5999289 81.919393,12.319909   C 84.159377,16.559877 82.31939,20.799846 80.719402,22.719832   C 79.039415,24.719817 79.919408,26.239806 79.119414,29.119784   C 78.399419,31.999763 74.479448,35.439737 69.039489,35.279739   C 63.679528,35.03974 59.43956,33.039755 56.479582,27.759794   C 54.239598,23.759824 56.879579,23.999822 57.439575,21.199843   z  M 17.51987,50.959623   C 12.399908,48.399641 6.6399508,42.719684 4.7999644,34.159747   C 3.8399716,29.67978 4.0799698,19.999852 10.319924,13.359901   C 10.319924,13.359901 6.6399508,30.639773 16.23988,41.199695   C 21.999837,47.599647 27.999793,50.559625 30.159777,51.679617   C 33.519752,53.519604 40.5597,56.799579 40.5597,56.799579   C 40.5597,56.799579 28.559788,56.399582 17.51987,50.959623   z  M 20.159851,41.679691   C 9.6799283,31.119769 13.119903,14.239895 16.399879,11.519915   C 20.799846,7.9199413 29.519781,6.3999526 36.079733,9.1199324   C 43.839675,12.479908 48.959637,20.559848 48.959637,20.559848   C 52.239613,26.479804 51.519618,29.119784 52.399612,33.439752   C 53.279605,37.75972 53.359605,45.599662 51.839616,49.039637   C 50.399627,52.239613 48.799639,55.119592 47.759646,55.119592   C 46.719654,55.119592 33.439752,55.039592 20.159851,41.679691   z "
     id="path988" />
</svg>
