<svg width="1148.000000pt" height="844.000000pt" viewBox="0 0 1148.000000 844.000000" xmlns="http://www.w3.org/2000/svg">
  <g transform="translate(0.000000,844.000000) scale(0.100000,-0.100000)" fill="#fefefe" stroke="none">
    <path d="M0 4220 l0 -4220 5740 0 5740 0 0 4220 0 4220 -5740 0 -5740 0 0
-4220z m2122 2977 c14 -13 44 -62 66 -108 l41 -84 21 -105 c12 -58 25 -157 28
-220 l7 -115 15 -3 16 -3 33 116 c45 157 211 475 247 475 l13 0 11 -57 12 -56
-6 -51 -7 -51 -142 -285 c-149 -298 -180 -376 -198 -500 -13 -91 -26 -307 -21
-337 7 -36 30 -27 53 20 12 23 29 53 39 67 9 14 45 79 80 145 95 183 169 303
203 329 l31 24 13 -25 c19 -36 16 -103 -6 -149 -10 -21 -25 -57 -32 -79 -26
-75 -230 -418 -291 -490 -46 -54 -105 -145 -129 -200 -11 -25 -23 -45 -27 -45
-13 0 -40 -89 -67 -225 -14 -71 -32 -163 -40 -204 -23 -111 5 -111 62 -1 40
76 69 116 143 193 30 33 71 83 90 112 19 29 57 81 83 116 27 35 51 76 54 92 3
15 28 58 55 95 27 37 51 78 54 92 3 14 11 50 19 80 7 30 16 73 20 95 3 22 12
49 20 60 13 21 20 42 116 345 55 173 77 230 91 230 9 0 41 61 68 132 l20 53
53 59 53 59 19 -6 18 -7 -6 -78 -6 -77 -50 -125 c-28 -69 -60 -141 -70 -160
-11 -19 -40 -82 -66 -140 -26 -57 -53 -109 -60 -115 -16 -12 -85 -166 -85
-189 0 -52 77 18 226 205 136 172 289 334 485 516 l174 161 73 25 73 25 6 -14
c7 -19 -42 -159 -72 -205 -28 -44 -172 -177 -279 -259 -80 -60 -253 -216 -424
-381 -51 -49 -127 -116 -170 -149 -42 -32 -95 -77 -117 -99 -21 -23 -47 -41
-56 -41 -30 0 -113 -120 -95 -137 4 -4 13 -3 20 2 15 11 194 148 313 239 40
31 74 56 77 56 8 0 160 92 206 125 25 17 85 55 133 84 l88 53 70 20 71 20 24
-6 24 -6 0 -16 c0 -25 -146 -170 -246 -244 -50 -37 -119 -93 -154 -124 -35
-32 -76 -65 -92 -74 -15 -9 -28 -20 -28 -24 0 -4 -4 -8 -9 -8 -5 0 -40 -19
-77 -42 -58 -35 -105 -57 -244 -116 -121 -51 -392 -244 -490 -350 l-81 -87
-36 -75 c-19 -41 -40 -84 -46 -95 -52 -96 -187 -399 -187 -419 0 -6 -18 -37
-40 -70 -57 -84 -47 -119 17 -60 26 24 83 69 354 279 56 44 166 143 243 221
174 173 309 272 354 257 l12 -5 0 -34 c0 -19 -4 -34 -9 -34 -5 0 -15 -16 -21
-35 -18 -54 -122 -175 -296 -345 -175 -169 -257 -232 -421 -317 -60 -31 -133
-73 -163 -93 -30 -21 -89 -58 -130 -83 -90 -56 -108 -72 -127 -116 -8 -19 -32
-60 -53 -90 -20 -31 -47 -76 -60 -101 -28 -56 -138 -220 -247 -367 -30 -41
-63 -119 -63 -149 l0 -24 24 0 24 0 6 17 c10 24 65 100 101 137 16 17 42 49
56 71 40 62 274 303 358 370 78 62 146 108 241 165 30 18 73 49 96 69 22 20
71 63 109 96 37 33 87 76 109 96 44 39 123 85 132 76 11 -11 -10 -79 -38 -122
-17 -25 -99 -111 -183 -192 -84 -80 -169 -166 -189 -192 -21 -25 -69 -73 -107
-106 -39 -33 -94 -80 -122 -105 -29 -25 -95 -74 -147 -110 -52 -36 -123 -93
-158 -128 -86 -87 -213 -193 -259 -216 -54 -28 -124 -103 -153 -167 -14 -30
-30 -57 -36 -61 -36 -23 -184 -279 -184 -318 l0 -20 23 0 c28 0 41 9 56 38 6
12 18 22 25 22 18 0 48 35 45 52 -2 7 7 31 18 54 l22 41 108 103 c59 57 144
133 188 170 44 37 152 134 240 216 88 82 176 161 195 174 19 13 60 44 90 69
65 52 186 111 229 111 l31 0 1 -12 c5 -48 -14 -81 -129 -237 -152 -204 -342
-385 -511 -485 -31 -18 -108 -66 -172 -107 -64 -41 -153 -96 -198 -124 l-81
-50 0 -17 0 -18 53 0 c77 0 239 27 347 57 l95 27 25 21 c29 25 126 75 145 75
6 0 43 16 81 36 38 20 94 46 125 59 31 12 87 41 125 63 l69 41 24 36 c13 20
43 50 65 67 l41 32 -17 -20 c-33 -38 -6 -64 31 -30 9 8 29 21 45 30 l29 15 14
-15 c30 -30 97 -10 210 62 32 20 112 65 178 100 l120 62 9 58 c4 33 10 66 13
74 l5 15 5 -12 c5 -15 39 -17 47 -4 l6 9 29 -11 29 -11 153 79 c266 135 263
133 203 175 -137 97 -223 244 -264 450 l-22 105 5 90 c11 204 54 355 165 581
l60 121 71 84 c71 85 170 176 296 271 39 29 102 78 140 109 39 31 95 72 125
92 68 43 91 68 123 132 l25 50 3 245 4 245 -47 6 c-25 4 -71 14 -102 23 l-56
16 -11 22 -12 22 6 170 c6 164 26 320 44 335 4 4 28 24 53 43 l45 36 75 23 75
24 185 -1 185 -1 99 -37 c117 -44 211 -94 249 -134 l28 -30 -1 -192 -1 -192
-10 -20 c-6 -11 -8 -25 -5 -33 12 -32 -93 -85 -171 -85 l-33 0 0 -216 0 -215
27 -56 27 -55 57 -52 c31 -28 90 -70 129 -94 l72 -43 158 -146 159 -145 39
-57 c22 -31 49 -74 61 -96 11 -22 29 -51 39 -65 90 -121 174 -348 189 -507 l6
-64 26 7 c14 3 50 6 79 5 l52 -2 0 20 c0 11 -26 70 -57 131 -32 61 -68 130
-80 153 -12 23 -24 63 -28 88 l-6 45 20 80 c11 43 27 126 36 182 8 57 22 131
30 165 8 34 22 124 31 199 l17 137 -16 43 c-54 147 -2 231 246 395 72 47 158
107 192 133 35 26 85 56 111 66 27 10 71 31 98 47 27 16 84 46 125 66 l76 38
83 13 83 14 77 -13 c83 -14 212 -58 332 -114 42 -19 89 -37 107 -41 17 -4 52
-21 79 -37 l48 -31 105 50 c123 59 168 75 282 98 l84 18 140 0 140 1 120 -38
c237 -75 277 -89 358 -123 l82 -35 38 -47 c20 -26 45 -67 53 -92 9 -25 30 -75
46 -112 l30 -66 102 -99 101 -100 105 -71 c115 -78 140 -99 193 -164 49 -60
160 -292 187 -389 l21 -81 0 -91 -1 -92 -15 -58 c-18 -71 -19 -64 3 -69 l17
-5 28 -84 c29 -89 47 -210 47 -322 l0 -68 -26 -112 c-15 -62 -40 -164 -56
-227 l-28 -115 -49 -100 c-78 -160 -154 -256 -371 -473 -99 -100 -129 -125
-205 -175 -92 -61 -217 -182 -290 -282 -67 -92 -67 -91 -160 -127 -38 -14
-115 -45 -170 -69 l-100 -42 -110 -3 c-60 -2 -143 -9 -183 -15 l-73 -12 -157
6 -157 7 -63 15 -62 15 -108 57 c-59 31 -142 80 -185 110 -43 29 -83 53 -89
53 -5 0 -22 8 -36 19 -15 10 -58 35 -97 54 -38 20 -81 43 -95 51 -14 8 -72 40
-130 72 -58 31 -125 69 -150 84 -25 16 -90 45 -145 65 -55 20 -143 59 -196 86
l-96 49 -64 69 c-126 135 -201 227 -220 270 l-19 43 0 83 0 82 -25 133 c-39
209 -34 287 28 423 l31 69 -15 9 c-8 5 -41 8 -74 7 l-60 -3 -3 -55 c-6 -134
-59 -327 -124 -453 -45 -89 -246 -286 -390 -384 l-48 -32 -92 -26 -93 -27
-140 -13 c-77 -7 -212 -19 -300 -25 l-160 -12 -202 16 -202 16 -77 26 c-43 14
-89 31 -103 39 -14 8 -46 23 -71 35 -25 11 -70 38 -100 60 l-55 40 -48 -5 -47
-6 -133 -66 c-168 -84 -314 -168 -352 -204 -43 -39 -149 -99 -177 -99 -13 0
-54 -18 -93 -40 -107 -61 -182 -96 -259 -120 -21 -7 -67 -25 -102 -41 l-64
-29 0 -15 c0 -8 -15 -21 -32 -30 -18 -8 -40 -19 -48 -24 -8 -6 -54 -28 -102
-50 l-88 -40 0 -15 c0 -20 -25 -32 -85 -40 -56 -7 -167 -44 -205 -68 -14 -8
-47 -21 -75 -28 -27 -7 -111 -30 -185 -51 -74 -20 -159 -40 -187 -44 l-53 -7
0 -13 c0 -34 115 -23 305 31 72 20 148 41 170 47 22 5 60 18 85 27 25 10 84
30 133 44 48 15 87 31 87 36 0 6 13 10 29 10 84 0 201 41 258 90 17 15 53 42
80 60 l48 31 -47 -44 c-72 -68 -65 -79 32 -51 257 73 431 92 877 95 l303 3 41
48 c23 27 43 47 46 45 2 -3 -8 -17 -22 -31 l-26 -26 3 -18 3 -17 33 -10 c33
-10 42 -29 18 -38 -8 -3 -20 1 -26 9 -7 8 -27 14 -45 14 l-33 0 -27 -31 -26
-32 3 -41 3 -41 50 -24 49 -23 26 9 25 9 0 62 0 62 11 0 c7 0 15 -16 19 -37
l6 -36 37 -37 c48 -48 72 -60 121 -60 l41 0 20 20 c11 11 20 26 20 34 0 27
-19 66 -32 66 -8 0 -49 18 -93 40 -44 22 -85 40 -92 40 -7 0 -13 7 -13 15 0 8
-4 15 -10 15 -5 0 -10 5 -10 10 0 6 11 10 24 10 14 0 27 4 30 9 3 4 18 11 33
14 16 3 43 20 61 38 l33 31 -3 51 -3 52 -38 0 c-46 0 -46 2 0 21 l37 16 13
-18 13 -18 0 -52 c0 -29 -5 -56 -10 -59 -5 -3 -10 -13 -10 -20 l0 -14 50 -22
c28 -12 60 -33 71 -47 l19 -25 108 -9 c169 -13 257 -27 406 -65 l138 -35 26 7
c15 4 53 31 84 61 58 55 144 104 185 104 l22 0 11 -19 c5 -11 10 -31 10 -45
l0 -26 45 0 46 0 8 -22 c10 -27 4 -53 -15 -69 -8 -6 -14 -20 -14 -30 l0 -18
38 -10 c20 -6 56 -13 79 -17 l43 -7 6 17 c9 23 151 143 196 167 38 19 74 24
102 13 l16 -6 6 -39 7 -39 19 0 c11 0 35 -15 54 -34 l34 -34 -10 -24 c-12 -26
-66 -64 -105 -74 l-26 -6 3 -16 c4 -18 41 -32 208 -76 69 -19 163 -48 210 -64
47 -17 139 -45 205 -62 66 -18 158 -43 204 -56 46 -13 96 -24 112 -24 l28 0
18 26 c10 15 42 53 72 85 l54 58 50 26 51 25 46 0 c57 0 70 -12 70 -67 l0 -44
18 -6 c28 -10 62 -45 62 -64 0 -41 -100 -119 -152 -119 -10 0 -18 -6 -18 -13
0 -20 22 -37 49 -37 13 0 54 -9 90 -19 99 -29 219 -61 229 -61 5 0 22 20 38
45 47 75 186 182 248 192 l31 4 20 -14 20 -15 -2 -57 -3 -57 24 -29 c41 -48
47 -119 11 -119 l-15 0 0 -19 0 -19 93 -21 c50 -12 109 -21 130 -21 l37 0 0
15 c0 52 116 189 195 230 l50 25 18 -21 c9 -12 17 -34 17 -50 l0 -29 23 -9
c13 -5 29 -23 36 -39 l13 -31 -7 -23 c-4 -13 -20 -40 -36 -60 -16 -20 -29 -43
-29 -52 l0 -14 68 -11 c37 -6 128 -12 202 -14 l135 -2 11 66 11 66 21 31 c35
48 134 128 176 142 l38 12 10 -13 9 -14 -5 -58 -6 -58 45 -20 45 -20 0 -14 c0
-27 28 -15 92 39 128 108 188 115 188 20 l0 -42 39 -7 c22 -4 45 -13 52 -21
l11 -14 -6 -45 -7 -45 15 0 c8 0 34 25 58 55 56 72 155 152 212 171 l46 16 31
-22 31 -23 -5 -26 c-3 -14 -8 -36 -12 -48 l-7 -21 85 1 85 2 25 -23 c14 -13
27 -32 30 -43 l5 -19 -49 -44 -50 -45 -57 -21 c-102 -37 -107 -44 -68 -122 42
-84 33 -125 -34 -152 -84 -33 -139 -18 -190 52 l-31 44 -33 101 -33 101 -19 7
c-28 11 -74 10 -116 -2 l-38 -10 0 -18 c0 -10 9 -38 20 -63 10 -24 22 -62 26
-85 l6 -41 -37 -25 -37 -25 -28 8 c-15 4 -37 13 -48 19 -11 6 -32 11 -46 11
l-24 0 -19 -38 -18 -37 -29 -14 -28 -13 -42 17 c-22 10 -55 34 -73 54 l-32 36
-21 -12 c-11 -7 -38 -13 -60 -13 -23 0 -61 -5 -85 -11 l-44 -11 -38 18 -38 19
-3 33 c-2 17 6 71 18 118 12 47 20 88 17 90 -3 3 -51 9 -108 14 -57 5 -120 13
-139 18 -19 6 -59 13 -89 17 l-53 6 7 -60 7 -59 -19 -10 c-10 -6 -36 -13 -57
-17 l-39 -8 -11 -28 c-12 -34 -28 -40 -78 -31 l-36 7 -36 33 -36 32 -2 33 c-2
45 -2 48 6 99 l7 45 -48 12 c-26 7 -70 20 -98 30 -27 10 -69 22 -93 26 l-43 7
7 -41 7 -41 -13 -30 -12 -30 -19 0 c-10 0 -20 -4 -23 -9 l-6 -8 -42 8 c-24 4
-53 8 -64 9 l-22 0 -6 -34 c-4 -18 -15 -41 -24 -50 l-18 -16 -63 21 -63 21
-19 32 c-10 17 -19 40 -19 51 0 29 43 117 69 139 34 31 26 40 -56 65 -43 13
-110 37 -150 53 -39 15 -78 28 -87 28 l-16 0 0 -25 c0 -33 -27 -85 -43 -85 -6
1 -23 7 -37 15 -14 8 -33 14 -42 15 l-17 0 -6 -22 c-4 -13 -18 -40 -32 -61
l-26 -37 -19 0 c-11 0 -35 15 -53 33 l-33 33 -12 43 c-6 24 -12 77 -12 118
l-1 75 -21 13 c-26 17 -202 67 -337 95 -57 12 -155 40 -219 62 -63 22 -163 53
-223 70 l-107 29 -13 -13 c-7 -7 -18 -32 -25 -56 l-13 -43 -27 -11 c-15 -6
-49 -10 -75 -10 l-48 1 -10 -26 -9 -25 -28 6 c-41 10 -74 38 -107 91 l-30 48
-5 75 -5 76 -70 17 c-38 9 -90 16 -115 15 l-45 -1 -3 -22 c-2 -12 7 -41 19
-65 l22 -43 0 -37 c0 -21 -8 -49 -17 -63 l-16 -25 -40 0 -40 0 -17 18 c-10 11
-26 29 -36 42 l-19 22 -39 -5 -39 -5 -26 21 c-15 11 -32 35 -40 52 l-13 33 9
33 c5 19 15 44 21 56 6 12 9 28 6 36 l-5 14 -49 8 c-26 4 -59 13 -73 20 -46
23 -164 44 -311 55 -79 6 -160 13 -179 16 l-35 5 -22 -43 c-12 -24 -25 -56
-28 -72 -3 -16 -21 -44 -40 -63 l-33 -33 -38 0 -39 0 -35 19 c-19 11 -45 25
-58 32 l-24 13 -16 -12 c-9 -7 -27 -17 -40 -22 l-23 -10 -42 10 -42 9 -27 31
-28 30 0 29 c0 15 11 45 25 65 44 64 57 62 -250 46 -104 -5 -260 -12 -345 -14
-151 -5 -283 -23 -405 -53 -33 -8 -80 -18 -105 -22 -25 -4 -65 -17 -90 -28
-25 -11 -67 -23 -93 -27 -57 -7 -67 -12 -67 -32 l0 -16 78 6 77 6 -65 -20
c-36 -11 -73 -20 -83 -20 -10 0 -30 -6 -45 -14 -15 -8 -67 -21 -115 -29 -48
-8 -136 -30 -197 -47 l-110 -33 0 -20 0 -20 113 5 112 5 98 37 c55 21 101 35
103 33 3 -3 -9 -10 -26 -16 l-31 -10 3 -23 3 -23 40 -2 c156 -7 524 -84 746
-157 116 -38 501 -216 571 -263 23 -17 66 -42 93 -56 28 -15 57 -31 65 -37
l15 -11 -25 6 c-14 4 -86 42 -160 84 -74 42 -162 88 -195 101 -33 13 -107 47
-165 75 -58 29 -132 60 -165 70 -33 9 -71 22 -85 27 -13 5 -63 18 -110 28 -47
10 -137 30 -200 45 -63 14 -173 37 -245 51 l-130 26 -95 -5 c-52 -3 -119 -11
-147 -18 l-53 -12 0 -17 0 -17 48 -30 c53 -35 144 -125 223 -223 29 -36 88
-99 130 -141 l77 -76 107 -72 c59 -40 135 -86 169 -103 33 -17 92 -49 130 -71
69 -40 105 -55 241 -103 134 -48 160 -54 340 -86 l180 -32 305 0 c168 -1 394
2 502 4 l198 5 0 13 c0 16 10 15 53 -3 20 -8 50 -15 67 -15 l30 0 0 24 0 25
-43 31 c-43 31 -144 138 -207 220 -19 25 -47 57 -61 72 -15 15 -40 50 -56 77
-34 59 -191 231 -247 271 -62 44 -206 144 -219 152 -65 41 -188 106 -312 164
l-150 72 -115 30 c-63 17 -159 36 -214 43 l-98 12 -212 -6 -211 -5 -120 -31
c-66 -16 -140 -37 -164 -45 -50 -18 -54 -19 -47 -7 3 4 27 14 53 21 27 7 62
18 78 25 73 31 267 70 390 80 l81 6 134 -15 c74 -8 152 -15 174 -15 l38 0 210
-70 209 -70 112 -61 c62 -33 133 -75 159 -93 26 -18 96 -63 155 -102 l108 -70
88 -85 89 -85 66 -100 c73 -111 143 -202 245 -317 l69 -78 81 -49 c45 -27 112
-64 150 -82 37 -18 67 -37 67 -41 0 -5 -10 -2 -22 6 -36 22 -115 43 -233 62
l-110 18 -160 0 c-88 -1 -305 -4 -482 -8 l-321 -8 -149 16 c-197 22 -285 40
-423 88 -63 21 -141 48 -174 59 -32 11 -77 32 -100 46 -22 15 -72 42 -111 61
-74 36 -156 84 -240 138 -59 38 -176 151 -299 289 -146 165 -164 182 -223 216
-32 18 -80 39 -108 46 -27 8 -63 21 -80 30 l-30 17 -160 2 c-88 2 -179 6 -202
10 l-43 7 -14 -12 -15 -12 -113 -5 c-114 -5 -198 -16 -253 -35 -16 -6 -62 -19
-102 -29 -125 -33 -296 -136 -315 -191 -3 -8 -8 -11 -12 -8 -4 4 9 36 29 72
37 68 93 125 163 166 23 13 66 50 97 81 l57 57 15 104 15 104 -6 155 c-3 85
-10 173 -15 195 l-10 39 5 246 6 245 15 40 c16 43 59 105 72 105 17 0 39 -68
51 -156 l12 -91 -5 -269 -5 -269 -15 -47 c-9 -26 -23 -59 -32 -75 -9 -15 -13
-19 -10 -8 4 11 14 54 22 95 l14 75 6 270 6 270 -18 78 -17 77 -23 0 -24 0 -5
-17 c-6 -25 -12 -414 -8 -672 l2 -213 20 5 c23 6 24 0 9 -40 -6 -15 -15 -50
-20 -76 l-9 -49 10 -19 11 -19 25 0 24 0 10 26 c6 14 23 37 40 51 16 13 30 30
30 37 0 7 13 30 30 52 16 21 30 47 30 57 0 10 6 30 14 45 8 15 23 56 35 91
l21 64 0 146 1 146 -30 195 c-17 107 -35 222 -39 255 -13 86 -93 285 -160 395
-74 122 -82 146 -89 256 l-6 91 12 21 c58 108 272 -261 367 -633 l26 -100 13
-170 c7 -93 11 -172 10 -175 -2 -3 -9 -44 -15 -90 -6 -47 -15 -89 -20 -95 -4
-5 -11 -41 -15 -78 l-7 -69 28 4 28 3 24 90 c13 50 27 106 31 125 4 19 27 73
51 119 l43 85 5 70 4 71 -16 115 c-9 63 -23 147 -31 185 -8 39 -18 108 -24
155 -5 47 -22 157 -36 245 -15 88 -31 187 -36 220 -5 33 -12 130 -15 215 l-6
155 16 95 c9 52 33 161 52 242 l37 147 19 21 c10 11 25 20 32 20 l13 0 7 -292
c8 -331 20 -519 41 -617 8 -37 19 -136 26 -221 l12 -155 -7 -210 c-3 -115 -9
-234 -12 -262 l-7 -53 21 0 21 0 20 28 c43 60 101 234 116 347 3 28 19 95 35
150 42 147 49 229 59 645 l8 375 12 28 11 28 20 -11 c32 -17 50 -169 50 -435
l1 -160 -26 -170 -27 -170 -40 -135 c-23 -74 -43 -145 -46 -157 l-4 -23 19 0
c11 0 27 8 35 18 20 24 95 181 104 217 4 17 24 68 46 113 22 46 47 116 58 155
41 160 59 227 84 308 37 124 86 323 86 354 0 14 16 81 34 148 19 67 40 157 46
200 l12 78 -40 77 c-77 148 -272 681 -272 742 l0 28 16 6 c24 9 63 -17 130
-86 l62 -63 35 -90 c20 -49 39 -114 42 -142 l7 -53 19 0 19 0 0 104 0 104 -15
28 c-8 16 -15 42 -15 58 0 49 -50 234 -85 316 -18 43 -43 112 -55 154 l-21 76
-1 90 -1 90 18 20 c23 25 27 25 57 -3z m1693 -4045 c-6 -4 -26 -21 -45 -37
l-36 -30 38 38 c20 20 41 37 45 37 4 0 3 -3 -2 -8z m-1418 -378 c-3 -3 -12 -4
-19 -1 l-13 5 19 1 c11 1 17 -2 13 -5z m998 -351 c50 -19 122 -50 160 -68 39
-18 97 -45 130 -59 111 -51 358 -201 410 -249 18 -17 -78 34 -155 83 -232 145
-255 156 -579 291 -156 65 -132 66 34 2z m-896 -97 c126 -81 271 -159 356
-191 38 -15 80 -34 94 -43 55 -36 69 -44 167 -91 56 -27 133 -59 170 -70 38
-12 76 -26 84 -32 l15 -11 -20 7 c-11 3 -40 10 -65 15 -25 5 -72 21 -105 36
-33 14 -76 32 -96 39 -19 7 -60 28 -90 48 -62 39 -182 101 -219 112 -48 14
-113 47 -179 89 -36 24 -91 58 -121 75 -30 18 -73 49 -95 68 l-40 36 24 -13
c14 -7 68 -40 120 -74z m1405 -415 c81 -47 165 -96 185 -108 20 -13 64 -37 98
-55 34 -18 60 -34 58 -36 -6 -6 -157 72 -220 113 -27 18 -86 52 -130 75 -72
39 -202 122 -215 138 -5 6 5 0 224 -127z m-443 -47 c24 -9 64 -22 89 -30 l45
-14 -40 4 c-22 2 -65 15 -95 29 -63 29 -63 34 1 11z m166 -51 c-4 -3 -10 -3
-14 0 -3 4 0 7 7 7 7 0 10 -3 7 -7z m818 -179 l50 -22 -20 -1 c-11 -1 -47 12
-80 29 l-60 29 30 -6 c17 -3 53 -16 80 -29z" />
    <path d="M2080 7098 l0 -73 20 -81 c10 -45 35 -122 53 -170 19 -49 39 -111 45
-139 6 -27 13 -62 16 -77 l6 -28 20 0 c27 0 30 11 20 71 -6 30 -15 90 -21 134
-15 118 -68 333 -96 388 l-23 47 -20 0 -20 0 0 -72z" />
    <path d="M2560 7069 c0 -6 -11 -24 -24 -40 -64 -76 -141 -258 -195 -462 -25
-91 -26 -107 -7 -107 l13 0 83 168 c141 285 160 334 160 422 l0 30 -15 0 c-8
0 -15 -5 -15 -11z" />
    <path d="M4310 6994 c-52 -6 -144 -25 -155 -34 -5 -4 -23 -10 -38 -14 l-28 -7
-11 -24 -11 -24 12 -15 c7 -8 56 -30 109 -48 l97 -33 160 -5 160 -5 -60 -20
-60 -20 -100 1 -100 1 -55 23 c-30 12 -74 31 -97 42 -24 11 -51 18 -60 16
l-18 -3 0 -25 0 -24 85 -58 c47 -31 114 -69 150 -85 l65 -27 106 1 106 2 64
24 c74 28 147 64 237 115 l62 36 0 33 0 33 -32 20 c-62 38 -216 100 -270 109
-60 11 -265 20 -318 15z" />
    <path d="M3695 6754 c-129 -67 -467 -406 -602 -604 -17 -25 -57 -67 -88 -95
-169 -148 -263 -265 -212 -265 19 0 100 61 174 131 37 35 108 103 158 150 121
116 267 245 338 299 33 24 106 89 163 144 l104 100 20 64 c11 35 20 70 20 78
l0 14 -22 0 c-13 0 -36 -7 -53 -16z" />
    <path d="M3032 6703 c-39 -50 -86 -144 -124 -251 -17 -48 -35 -90 -40 -93 -5
-3 -30 -68 -57 -145 -27 -76 -66 -182 -86 -234 -21 -52 -42 -111 -46 -130 -4
-19 -11 -47 -15 -62 l-6 -28 19 0 20 0 23 53 c77 172 93 205 109 237 11 19 22
49 25 66 4 17 15 40 24 50 18 19 112 203 112 218 0 5 15 47 33 95 29 74 44
123 74 239 l5 22 -20 0 -20 0 -30 -37z" />
    <path d="M4020 6638 c0 -45 -5 -110 -11 -146 l-11 -64 10 -10 c6 -6 48 -17 93
-24 l82 -13 18 -17 19 -17 0 -116 c0 -64 7 -159 15 -212 l14 -96 -7 -70 -8
-70 -37 -51 c-20 -29 -37 -56 -37 -60 0 -4 -21 -16 -47 -25 -59 -22 -161 -86
-233 -147 -30 -26 -95 -77 -145 -115 -80 -61 -138 -115 -242 -226 l-32 -34
-35 -85 c-55 -136 -91 -254 -107 -350 -39 -243 -50 -318 -59 -424 l-10 -119
21 -44 c41 -85 201 -162 394 -190 17 -2 145 -6 285 -10 l255 -5 40 11 40 11 3
-10 c2 -6 27 -11 55 -11 29 -1 43 -3 32 -6 -37 -8 -80 -26 -104 -45 -12 -9
-38 -20 -57 -24 l-34 -6 0 -19 0 -19 28 -7 c74 -21 351 -1 456 33 l48 16 -6
28 -5 28 18 -5 18 -5 17 17 c9 9 16 25 16 36 l0 20 18 5 c9 3 30 11 46 17 l28
10 14 33 c8 18 19 36 25 40 l11 6 -11 -20 c-14 -26 -14 -62 -1 -62 6 0 10 -9
10 -20 l0 -20 79 0 c44 0 92 -5 106 -10 92 -35 331 -52 383 -28 l27 13 3 21 3
22 -73 5 c-107 7 -319 36 -348 47 l-25 10 30 -6 c17 -3 126 -8 243 -11 l212
-5 0 11 c0 6 10 15 23 20 l23 9 31 74 31 74 11 97 11 98 -15 207 -16 207 -15
45 c-41 116 -127 258 -224 370 -31 36 -73 88 -93 116 l-37 52 -33 13 c-17 7
-59 41 -92 75 -33 34 -98 90 -144 124 -190 140 -220 169 -253 240 l-21 45 -7
220 c-3 121 -5 225 -3 232 6 15 96 53 128 53 14 0 43 10 63 21 l37 22 -3 151
c-4 163 -5 166 -30 149 -9 -6 -57 -36 -105 -66 l-88 -56 -57 -12 -57 -12 -140
-1 -140 -1 -83 28 -83 28 -55 50 c-30 27 -63 49 -74 49 l-20 0 0 -82z m624
-663 l1 -105 -10 3 c-5 2 -16 14 -23 28 l-12 24 6 65 c14 138 37 129 38 -15z
m24 -200 l0 -20 -8 25 c-4 14 -8 34 -8 45 l0 20 8 -25 c4 -14 8 -34 8 -45z
m47 -143 c-8 -8 -25 17 -25 38 l0 14 16 -22 c9 -13 13 -26 9 -30z m-759 -423
c-94 -135 -216 -406 -216 -479 0 -10 -8 -21 -17 -24 l-16 -7 -9 13 c-24 37 30
187 125 343 6 11 25 42 42 70 40 67 128 171 132 158 2 -6 -16 -39 -41 -74z
m1671 -866 c-4 -3 -7 0 -7 7 0 7 3 10 7 7 3 -4 3 -10 0 -14z m-982 -389 c-94
-22 -119 -13 -28 10 26 7 55 10 63 7 l15 -5 -50 -12z" />
    <path d="M1940 6538 c0 -13 9 -42 20 -66 10 -23 23 -57 29 -75 5 -17 27 -81
49 -142 22 -60 60 -166 85 -235 l44 -125 17 -3 17 -4 -6 99 c-4 54 -15 151
-26 217 l-19 118 -41 79 -41 79 -46 40 c-24 22 -53 40 -63 40 l-19 0 0 -22z" />
    <path d="M6765 6484 c-142 -33 -250 -87 -453 -225 -40 -27 -76 -49 -81 -49 -4
0 -16 -9 -26 -20 -10 -11 -66 -51 -124 -89 l-106 -69 -31 -44 c-17 -23 -40
-59 -52 -79 l-22 -37 16 -68 c14 -63 21 -185 11 -201 -3 -5 -10 -60 -17 -123
-10 -102 -29 -188 -77 -355 l-14 -50 3 -120 4 -120 22 -50 c13 -27 29 -61 38
-75 8 -14 33 -60 54 -102 22 -43 46 -78 54 -78 l13 0 18 82 c9 45 23 95 30
112 7 17 16 62 20 100 6 64 41 194 65 241 20 42 50 131 50 150 0 12 4 25 9 30
5 6 23 45 41 87 37 90 78 154 135 213 52 53 143 125 157 125 6 0 59 22 117 48
147 67 224 93 306 103 39 4 99 12 135 18 36 6 112 15 168 21 l104 10 57 -9
c84 -14 134 -28 156 -46 l20 -16 -60 8 c-33 4 -125 8 -205 7 l-145 -1 -61 -17
c-34 -9 -79 -16 -100 -17 -138 -2 -614 -193 -614 -246 0 -7 -9 -23 -20 -35
-117 -136 -220 -407 -299 -789 -4 -19 -11 -41 -15 -47 -7 -11 -16 -53 -34
-152 -3 -19 -5 -86 -4 -147 l1 -113 26 -153 c13 -85 32 -171 40 -193 26 -65
76 -160 99 -187 11 -14 28 -35 36 -47 22 -32 101 -87 136 -94 16 -4 59 -25 95
-47 181 -111 442 -151 806 -121 l162 14 18 -11 18 -10 -27 -10 c-14 -5 -55
-16 -90 -23 l-63 -13 -210 2 -210 1 -95 17 c-132 22 -310 92 -439 170 -124 75
-261 271 -291 415 -31 153 -49 255 -55 324 l-7 76 -24 0 -24 0 -17 -27 -18
-27 0 -111 c0 -165 10 -302 29 -380 8 -38 16 -90 16 -115 0 -24 6 -69 13 -99
l12 -55 94 -98 c110 -116 198 -181 295 -220 39 -16 96 -42 127 -58 31 -17 61
-30 67 -30 6 0 48 -21 94 -48 46 -26 96 -53 111 -60 29 -12 251 -144 462 -272
238 -145 304 -177 412 -201 l58 -13 170 0 c94 -1 236 4 316 11 l146 12 49 20
c97 38 159 67 189 85 134 85 176 123 255 226 19 25 43 52 55 60 11 8 31 26 45
39 42 43 111 93 170 123 l56 28 74 73 c40 39 86 92 101 116 15 23 46 56 68 72
109 81 215 280 295 557 l36 124 11 118 c12 133 8 255 -11 383 l-14 88 -18 -3
-19 -3 -24 -58 c-45 -111 -234 -334 -304 -359 -6 -1 -26 -73 -45 -158 -54
-244 -100 -338 -229 -471 -82 -86 -104 -99 -197 -124 l-65 -18 -155 -2 -155
-3 -80 -20 c-44 -11 -121 -28 -172 -37 l-92 -17 -39 -26 c-106 -71 -129 -88
-150 -110 -41 -43 -210 -102 -292 -102 -53 0 -364 59 -356 68 2 2 58 -4 124
-12 66 -9 155 -16 198 -16 l77 0 98 36 98 36 45 39 c24 21 48 39 53 39 4 0 28
16 51 35 50 39 138 75 185 75 18 0 61 9 97 21 l65 20 200 9 c285 12 322 24
428 135 117 122 179 248 222 455 l15 75 0 101 c0 55 -4 136 -10 180 -5 43 -16
140 -24 214 l-15 135 -30 85 c-81 233 -103 271 -229 391 l-99 94 -74 37 -74
38 -135 24 c-74 14 -172 28 -218 31 -86 7 -96 12 -82 35 l9 14 53 -1 c29 -1
107 -12 173 -24 66 -12 140 -25 165 -29 153 -26 337 -173 477 -382 l51 -77 12
-48 c24 -101 29 -119 44 -158 l15 -40 1 -67 c0 -37 4 -98 10 -135 16 -118 28
-187 37 -223 l9 -35 30 1 29 2 43 40 c23 23 42 44 42 48 0 4 16 25 35 48 19
22 41 48 48 56 29 35 88 185 106 270 6 25 13 58 17 74 4 15 2 51 -5 80 -6 28
-20 91 -31 139 l-20 89 -50 101 c-27 56 -50 106 -50 113 0 59 -180 224 -244
224 -7 0 -17 8 -22 18 -9 18 -63 69 -212 200 -40 35 -72 67 -72 72 0 6 -13 38
-30 72 -16 34 -30 66 -30 72 -1 113 -112 188 -425 285 -130 40 -180 49 -322
57 l-118 6 -138 -21 -137 -21 -48 -25 c-26 -14 -52 -25 -58 -25 -6 0 -30 -13
-52 -30 -23 -16 -47 -30 -54 -30 -6 0 -19 -6 -27 -14 -9 -7 -36 -24 -61 -37
-56 -30 -164 -101 -168 -111 -2 -5 -8 -8 -13 -8 -9 0 -119 -84 -213 -162 -21
-18 -45 -35 -53 -36 l-15 -4 7 24 c13 43 89 108 250 216 88 59 167 109 175
111 58 13 50 45 -17 71 -32 13 -98 42 -148 65 -49 24 -133 57 -185 75 l-95 33
-95 3 c-52 1 -104 1 -115 -2z m1118 -758 l109 -35 36 -28 c49 -37 72 -63 137
-158 l55 -80 20 -70 20 -70 0 -61 0 -61 40 -56 40 -56 43 -21 c23 -12 60 -34
82 -50 22 -16 70 -50 108 -76 37 -26 67 -50 67 -54 0 -3 15 -24 34 -46 40 -46
62 -106 82 -224 l15 -85 -11 -70 c-24 -144 -32 -171 -80 -273 -28 -57 -50
-108 -50 -113 0 -5 -3 -9 -8 -9 -4 0 -16 -17 -27 -37 -11 -21 -45 -77 -77
-125 -32 -48 -58 -91 -58 -95 0 -5 -28 -36 -62 -70 l-63 -62 -49 -22 -49 -21
-101 -14 c-56 -7 -122 -14 -147 -14 -126 -1 -514 105 -824 225 -11 5 -45 27
-76 49 l-57 41 -50 75 c-69 104 -108 178 -121 226 l-11 40 15 56 c8 31 23 71
35 90 28 47 25 68 -21 159 -42 85 -45 105 -10 70 21 -21 41 -28 41 -13 1 49
35 260 51 315 52 180 174 327 359 437 112 67 185 79 324 55 l87 -15 50 -26 50
-25 20 -42 c10 -23 19 -49 19 -59 0 -23 15 -26 90 -21 l65 5 84 -16 c46 -8 88
-13 92 -10 5 3 9 39 9 81 l0 75 -17 36 c-9 21 -19 39 -23 42 -3 3 -23 34 -44
70 -88 147 -179 195 -431 224 l-50 6 -95 -14 c-52 -8 -141 -30 -196 -49 l-102
-35 -65 -50 c-147 -115 -242 -223 -261 -297 -4 -17 -12 -75 -16 -130 -8 -91
-17 -145 -49 -305 -6 -30 -14 -91 -17 -135 l-7 -80 -14 45 -14 45 5 75 c3 41
13 95 22 120 l16 45 13 161 13 160 16 39 c35 83 176 232 293 311 44 29 87 54
95 54 8 0 18 4 24 9 5 6 68 26 139 45 l130 36 100 -5 100 -4 108 -35z m-1036
-311 c-7 -14 -19 -27 -27 -30 -58 -20 -209 -207 -288 -358 l-44 -82 0 -112 c1
-61 5 -137 11 -170 5 -32 13 -86 16 -120 l7 -62 -27 -158 -27 -158 5 -63 5
-63 48 -96 49 -97 39 -38 c123 -118 345 -225 531 -257 l40 -7 -35 -6 -35 -6
-33 14 c-18 7 -85 27 -150 44 l-117 30 -99 67 c-55 37 -128 93 -162 125 l-62
58 -22 51 c-12 28 -31 88 -42 133 l-21 81 17 115 c10 63 24 135 31 160 23 79
24 102 5 247 l-19 143 14 94 13 94 43 86 c55 106 129 197 243 297 90 79 114
90 93 44z m1868 -285 c110 -76 240 -281 267 -420 l10 -55 -5 -110 c-9 -164
-64 -329 -146 -437 -33 -43 -81 -74 -94 -61 -10 9 15 52 38 67 31 20 100 140
121 211 l19 60 -1 145 0 145 -19 65 c-10 36 -38 107 -61 157 l-43 93 -73 77
c-40 43 -80 81 -88 85 l-15 7 23 0 c13 1 43 -13 67 -29z m355 -1740 c-92 -79
-190 -123 -504 -225 l-179 -58 -168 -83 c-92 -46 -181 -92 -196 -103 -28 -20
-107 -42 -220 -60 l-59 -9 -49 9 c-28 5 -101 29 -163 54 -61 25 -116 45 -122
45 -5 0 -24 9 -42 21 l-33 21 40 -5 c23 -2 92 -24 155 -47 l115 -42 125 -1
125 -1 45 21 c25 11 55 24 66 27 30 9 215 109 277 150 29 18 72 40 97 49 90
31 181 57 196 57 9 0 28 6 42 14 32 17 222 81 272 91 37 8 125 50 175 84 43
30 46 25 5 -9z m-1913 -117 c-4 -3 -10 -3 -14 0 -3 4 0 7 7 7 7 0 10 -3 7 -7z
m30 -10 c-4 -3 -10 -3 -14 0 -3 4 0 7 7 7 7 0 10 -3 7 -7z m30 -10 c-4 -3 -10
-3 -14 0 -3 4 0 7 7 7 7 0 10 -3 7 -7z m30 -10 c-4 -3 -10 -3 -14 0 -3 4 0 7
7 7 7 0 10 -3 7 -7z" />
    <path d="M7515 5335 c-22 -7 -52 -14 -67 -14 -15 -1 -72 -24 -125 -52 l-98
-51 -63 -67 c-35 -36 -75 -86 -90 -111 -14 -25 -29 -47 -33 -50 -10 -7 -36
-88 -44 -138 -4 -24 -13 -55 -20 -69 -28 -54 -28 -204 1 -328 l6 -30 45 -43
c87 -82 242 -177 260 -158 9 9 -14 71 -42 117 l-23 35 -7 105 -7 104 16 68 c9
38 16 75 16 83 l0 14 -20 0 c-10 0 -24 -9 -30 -19 -16 -31 -40 -170 -40 -236
l-1 -60 -9 16 c-5 9 -14 35 -19 59 l-10 44 14 68 14 67 47 88 46 88 37 33
c100 92 245 162 333 162 l21 0 57 54 57 54 39 11 c21 6 45 11 52 11 l12 0 0
25 c0 37 -26 72 -74 100 l-42 25 -85 4 -84 5 -40 -14z" />
    <path d="M7845 5151 c-11 -5 -41 -13 -66 -19 -57 -14 -119 -49 -119 -68 l0
-14 21 0 c12 0 47 -14 78 -30 l56 -30 22 -33 c12 -17 25 -51 29 -74 l7 -43
-16 -24 c-9 -13 -36 -33 -61 -45 l-44 -22 -17 -35 c-9 -19 -15 -45 -13 -57 l3
-22 23 -3 23 -4 34 26 c18 14 37 26 41 26 5 0 22 13 39 28 16 16 42 33 56 39
l27 12 21 -15 21 -15 0 -26 c0 -15 -5 -41 -12 -59 l-12 -33 16 -18 c24 -27 30
-58 17 -86 l-12 -25 -23 -6 c-29 -8 -30 -19 -5 -54 10 -15 21 -43 25 -62 l6
-35 -34 -70 c-47 -97 -112 -149 -234 -186 l-42 -12 0 -18 0 -18 36 -7 c20 -4
64 -4 98 -1 l61 5 -73 -21 -73 -20 -52 23 -52 23 -91 6 c-50 3 -97 11 -105 17
-81 61 -139 111 -139 120 0 6 -15 14 -34 17 -50 8 -175 71 -246 123 l-62 45
-26 -3 -25 -3 -13 -64 c-17 -81 -14 -94 55 -215 l56 -99 47 -41 c27 -23 48
-46 48 -52 0 -13 81 -54 105 -54 8 0 23 -4 33 -10 26 -15 255 -89 372 -120 58
-16 145 -40 194 -54 49 -14 103 -25 121 -24 17 1 36 -1 41 -5 16 -10 187 13
249 34 l60 20 42 37 c108 96 293 372 293 437 0 8 6 20 13 27 7 7 33 68 57 135
l43 123 -5 103 -5 104 -30 65 -31 66 -66 65 c-74 73 -150 127 -178 127 -20 0
-22 -9 -8 -65 40 -160 48 -281 25 -384 l-16 -68 -70 -117 c-58 -100 -160 -243
-227 -322 -24 -28 -123 -94 -142 -94 -9 0 -20 -4 -26 -10 l-10 -10 -83 7 -84
6 -19 19 c-26 26 -17 32 26 18 l35 -11 63 7 c76 8 101 17 151 51 47 33 194
212 209 256 6 18 19 43 28 57 9 14 20 32 25 41 6 9 23 33 38 52 15 19 37 60
47 91 l20 56 0 117 -1 118 -14 60 c-38 163 -55 203 -108 255 l-36 34 -67 23
-68 23 -120 -1 c-67 0 -130 -4 -141 -8z" />
    <path d="M7485 4972 c-102 -37 -155 -65 -187 -100 l-26 -27 -12 -140 -13 -139
7 -78 c13 -158 104 -324 201 -369 l40 -19 83 0 84 0 56 16 c98 28 192 94 192
134 -1 43 -48 64 -80 35 -32 -29 -171 -9 -230 34 l-25 18 -3 34 c-2 19 -13 44
-24 56 l-21 22 6 37 c4 20 15 47 27 59 26 27 26 57 0 80 l-21 19 3 50 3 51 29
3 c16 2 49 -4 73 -13 l43 -17 29 24 c16 12 46 34 65 48 l36 25 -5 35 c-9 54
-39 103 -75 124 l-32 19 -72 4 -71 4 -80 -29z" />
    <path d="M7560 4704 c0 -23 19 -54 34 -54 7 0 23 -11 36 -25 13 -14 32 -25 42
-25 l18 0 0 27 0 27 -36 33 -37 33 -28 0 -29 0 0 -16z" />
    <path d="M7904 4683 l-30 -36 -44 -6 -45 -6 -3 -27 -3 -28 23 0 c57 0 188 87
188 124 l0 16 -28 0 -29 0 -29 -37z" />
    <path d="M7717 4603 c-4 -3 -7 -28 -7 -55 l0 -48 -16 0 c-9 0 -29 -9 -46 -21
l-29 -21 3 -22 3 -21 37 -3 37 -3 25 17 26 16 0 24 0 24 -12 0 c-7 0 -2 7 10
16 l22 15 0 25 c0 47 -31 80 -53 57z" />
    <path d="M7866 4555 c-56 -16 -71 -27 -63 -49 l6 -15 78 6 c88 6 113 16 113
42 0 34 -49 39 -134 16z" />
    <path d="M7585 4534 c-14 -15 -25 -35 -25 -45 l0 -19 24 0 25 0 20 29 c12 16
21 36 21 45 l0 16 -20 0 c-12 0 -32 -12 -45 -26z" />
    <path d="M7827 4464 c-31 -31 70 -154 126 -154 l17 0 0 35 c0 45 -21 87 -52
102 -32 16 -82 25 -91 17z" />
    <path d="M7710 4384 c-19 -7 -50 -13 -67 -13 l-33 -1 0 -20 0 -21 43 -19 42
-20 56 0 55 0 12 12 c19 19 14 47 -14 73 -30 28 -43 29 -94 9z" />
    <path d="M2568 6268 c-20 -35 -62 -115 -93 -178 -32 -63 -79 -146 -105 -185
-75 -110 -120 -212 -120 -272 l0 -23 15 0 c8 0 22 12 32 26 10 14 32 42 49 62
32 39 104 148 104 159 0 3 17 29 39 58 67 88 161 317 161 391 l0 24 -23 0 -23
0 -36 -62z" />
    <path d="M3360 6009 c-96 -56 -202 -115 -235 -131 -73 -37 -193 -117 -219
-147 -11 -11 -24 -21 -30 -21 -17 0 -296 -270 -296 -286 0 -21 21 -17 61 10
41 28 224 116 241 116 6 0 56 25 111 56 l100 56 100 86 c54 48 116 98 136 112
98 65 251 207 251 232 l0 18 -23 0 c-12 0 -101 -45 -197 -101z" />
    <path d="M1332 5473 c-45 -147 -62 -258 -69 -453 l-5 -165 16 -87 c9 -49 23
-127 31 -175 19 -110 44 -229 56 -268 5 -16 14 -93 19 -170 5 -77 14 -156 20
-175 5 -19 10 -51 10 -71 0 -56 11 -99 25 -99 22 0 24 22 25 358 l0 329 -24
144 -24 144 -13 250 c-6 138 -10 316 -7 398 l5 147 -16 0 -16 0 -33 -107z" />
    <path d="M1766 5268 c-3 -18 -8 -185 -11 -370 l-5 -338 14 0 13 0 12 73 c6 39
16 126 22 192 l11 120 -6 140 c-4 77 -9 157 -13 178 l-6 37 -13 0 -13 0 -5
-32z" />
    <path d="M2759 5017 c-62 -38 -137 -106 -324 -292 l-180 -181 -85 -56 c-144
-95 -390 -300 -390 -324 0 -26 29 -15 121 47 50 34 121 74 158 91 36 16 73 34
81 39 8 5 31 16 50 24 19 9 40 19 46 23 120 79 108 68 298 257 207 206 306
328 306 380 l0 15 -22 0 c-13 0 -39 -10 -59 -23z" />
    <path d="M840 4598 c0 -24 9 -79 20 -123 l21 -80 33 -51 c53 -80 79 -137 144
-324 l61 -175 16 -175 c8 -96 18 -192 22 -212 l6 -38 12 0 c6 0 17 17 23 39
l12 38 -1 119 c0 141 -19 298 -47 409 -11 44 -26 105 -32 136 l-11 55 -37 65
c-21 35 -48 89 -61 119 -12 30 -33 71 -46 90 -13 19 -37 60 -53 90 l-29 55
-27 3 -26 3 0 -43z" />
    <path d="M2413 4279 c-32 -28 -65 -59 -73 -68 -40 -44 -270 -220 -303 -232
l-39 -14 -267 -265 c-327 -323 -401 -416 -339 -428 l17 -3 107 110 c59 61 111
111 117 111 9 0 56 35 105 79 15 14 65 56 112 94 156 127 168 137 241 215 40
42 151 154 246 247 l174 170 -1 18 0 17 -20 0 c-11 0 -46 -23 -77 -51z" />
    <path d="M1670 4215 c0 -8 7 -15 15 -15 8 0 15 7 15 15 0 8 -7 15 -15 15 -8 0
-15 -7 -15 -15z" />
    <path d="M1432 3748 c-7 -7 -12 -27 -12 -45 l0 -33 24 0 24 0 5 22 c13 50 -13
84 -41 56z" />
    <path d="M2102 3645 c-35 -18 -82 -50 -105 -70 -23 -19 -66 -54 -95 -76 -29
-22 -126 -111 -215 -198 -148 -143 -296 -274 -388 -343 -92 -68 -168 -165
-169 -215 0 -20 27 -15 68 11 20 13 62 36 92 51 30 15 80 44 110 64 30 20 86
54 124 75 38 21 88 52 110 70 23 17 53 38 68 46 44 22 143 109 208 185 154
179 190 223 190 237 0 6 23 41 50 79 l50 69 0 25 0 25 -17 0 c-10 0 -46 -16
-81 -35z" />
    <path d="M3868 2993 l-27 -4 -7 -21 -7 -22 22 -17 c12 -10 47 -27 77 -39 l56
-21 34 7 34 6 0 29 0 28 -23 27 -24 27 -54 3 c-30 1 -66 0 -81 -3z" />
    <path d="M4973 2971 c-74 -18 -163 -92 -163 -135 l0 -16 48 0 47 0 50 29 c28
16 58 38 68 49 l18 20 -3 29 -3 28 -15 1 c-8 1 -29 -1 -47 -5z" />
    <path d="M5460 2869 c-36 -22 -82 -53 -102 -70 l-38 -30 0 -23 0 -24 16 -6
c30 -12 45 -6 89 35 24 22 67 53 96 67 57 30 76 51 66 76 l-6 16 -28 0 -28 -1
-65 -40z" />
    <path d="M5037 2866 c-19 -13 -44 -27 -56 -31 l-21 -6 0 -19 0 -19 20 -6 c33
-10 103 5 128 28 l22 20 0 29 0 28 -29 0 c-15 0 -44 -11 -64 -24z" />
    <path d="M5546 2790 c-71 -36 -121 -100 -78 -100 31 0 157 29 195 45 41 17 46
34 19 58 l-19 17 -39 0 c-21 -1 -57 -10 -78 -20z" />
    <path d="M4753 2778 c-11 -13 -26 -40 -32 -60 l-12 -37 17 -37 c9 -20 28 -41
42 -47 l24 -11 19 23 c11 13 19 34 19 47 0 13 6 44 12 70 l13 46 -20 14 c-28
20 -59 17 -82 -8z" />
    <path d="M4868 2784 c-4 -3 -4 -49 -1 -102 l6 -97 16 -19 c20 -23 64 -46 89
-46 44 0 36 70 -20 188 l-40 82 -22 0 c-13 0 -25 -3 -28 -6z" />
    <path d="M5270 2633 l0 -68 20 -32 c18 -30 65 -63 91 -63 l12 0 -6 41 c-3 22
-13 50 -23 61 l-19 20 -5 51 -5 52 -32 3 -33 3 0 -68z" />
    <path d="M5380 2639 c0 -84 116 -163 163 -111 46 51 -36 132 -133 132 l-30 0
0 -21z" />
    <path d="M6740 2536 c-59 -37 -64 -41 -110 -97 -45 -55 -37 -79 27 -79 l24 0
72 46 c40 25 84 58 100 72 l27 26 0 27 0 27 -22 6 c-43 11 -64 6 -118 -28z" />
    <path d="M6830 2410 c-47 -16 -86 -30 -87 -30 -2 0 -3 -11 -3 -25 l0 -25 49 0
c90 0 171 41 171 87 l0 23 -22 0 c-13 0 -61 -14 -108 -30z" />
    <path d="M7435 2344 c-11 -9 -44 -30 -73 -46 -30 -17 -69 -47 -88 -66 l-34
-35 0 -24 0 -23 16 0 c9 0 35 17 59 38 24 20 70 50 102 67 77 39 93 53 93 82
l0 23 -27 0 c-16 0 -37 -8 -48 -16z" />
    <path d="M6556 2303 c-11 -28 5 -129 28 -169 l22 -39 26 -3 26 -3 16 23 c44
62 -19 208 -89 208 l-23 0 -6 -17z" />
    <path d="M6700 2284 c0 -41 58 -103 98 -104 l22 0 0 16 c0 27 -20 54 -60 79
-46 29 -60 31 -60 9z" />
    <path d="M7993 2226 c-73 -53 -113 -103 -113 -139 l0 -27 14 0 c19 0 133 69
168 102 l29 27 -3 38 -3 38 -15 3 c-8 1 -43 -18 -77 -42z" />
    <path d="M7398 2193 c-38 -20 -68 -42 -68 -49 l0 -14 43 -2 c65 -3 119 1 155
13 l32 11 0 17 c0 9 -7 27 -16 39 l-15 22 -32 -1 c-18 0 -62 -17 -99 -36z" />
    <path d="M8653 2141 c-56 -52 -93 -105 -93 -133 l0 -18 16 0 c15 0 40 16 108
73 38 30 71 91 62 113 -10 25 -40 14 -93 -35z" />
    <path d="M8969 2084 c-102 -82 -129 -109 -129 -130 l0 -14 33 0 34 0 86 65
c93 70 117 97 117 132 l0 23 -23 0 -24 0 -94 -76z" />
    <path d="M9501 2138 c-25 -12 -73 -50 -108 -84 l-63 -62 0 -26 0 -26 15 0 c46
0 210 102 219 135 3 11 6 35 6 53 l0 32 -12 0 c-7 0 -33 -10 -57 -22z" />
    <path d="M8060 2120 c-25 -16 -60 -40 -77 -52 l-33 -23 3 -15 2 -15 32 -3 c38
-4 87 16 131 52 l32 28 0 29 0 29 -22 0 c-13 0 -43 -14 -68 -30z" />
    <path d="M7218 2118 c-9 -7 -30 -35 -47 -62 l-31 -50 0 -31 c0 -70 86 -119
130 -75 l20 20 0 34 c0 18 -7 53 -15 77 l-16 43 6 28 7 28 -19 0 c-11 0 -26
-6 -35 -12z" />
    <path d="M7313 2084 c-8 -22 14 -91 38 -115 l20 -20 47 3 47 3 3 38 3 39 -15
23 -16 24 -37 10 c-21 6 -48 11 -61 11 l-23 0 -6 -16z" />
    <path d="M8704 2026 c-30 -30 -54 -62 -54 -70 l0 -16 30 0 c80 0 155 69 134
124 l-6 16 -25 0 -24 0 -55 -54z" />
    <path d="M9085 2024 c-15 -14 -45 -37 -66 -51 l-39 -26 0 -18 0 -19 43 0 42 0
65 33 65 32 3 29 4 29 -14 8 c-7 5 -27 9 -44 9 l-31 0 -28 -26z" />
    <path d="M9585 2001 c-33 -10 -77 -28 -97 -40 l-38 -23 0 -19 0 -18 38 -8 c20
-4 65 -8 98 -8 l61 0 59 37 59 36 3 19 3 19 -26 12 c-35 16 -89 14 -160 -7z" />
    <path d="M7815 1970 c-19 -36 -19 -100 -1 -144 l14 -34 38 -12 37 -13 15 19
14 19 -5 55 c-3 30 -13 74 -22 98 l-17 42 -29 0 -28 0 -16 -30z" />
    <path d="M7930 1965 c0 -53 45 -105 89 -105 l21 0 0 29 0 29 -35 31 c-20 17
-45 31 -55 31 l-20 0 0 -15z" />
    <path d="M8522 1902 c-27 -27 -62 -124 -62 -172 l0 -39 16 -15 c38 -38 68 -17
89 62 l16 64 -3 56 -3 57 -17 3 c-9 2 -26 -6 -36 -16z" />
    <path d="M8630 1850 l0 -50 -10 0 -10 0 0 -50 0 -50 23 0 22 1 29 29 29 29 -6
62 -5 62 -14 8 c-7 5 -23 9 -35 9 l-23 0 0 -50z" />
    <path d="M8790 1818 c-58 -102 -23 -198 72 -198 l34 0 19 32 19 33 0 45 -1 45
-29 48 -29 47 -27 0 -28 0 -30 -52z" />
    <path d="M9364 1845 l-6 -25 20 -43 c10 -23 23 -53 27 -66 8 -26 17 -39 49
-71 l20 -20 43 0 42 0 11 19 c5 11 10 39 10 62 l0 42 -20 32 -19 32 -48 25
c-27 14 -65 29 -85 32 l-37 7 -7 -26z" />
    <path d="M8950 1831 l0 -31 29 -47 c32 -52 75 -83 115 -83 l26 0 6 25 6 25
-23 47 c-29 57 -62 83 -117 90 l-42 6 0 -32z" />
  </g>
  <g transform="translate(0.000000,844.000000) scale(0.100000,-0.100000)" fill="#505050" stroke="none">
    <path d="M10665 8150 c3 -5 8 -10 11 -10 3 0 2 5 -1 10 -3 6 -8 10 -11 10 -3
0 -2 -4 1 -10z" />
    <path d="M2055 7210 l-19 -21 1 -98 1 -99 22 -77 c12 -42 37 -112 55 -155 35
-82 85 -267 85 -316 0 -16 7 -42 15 -58 l15 -28 0 -94 0 -94 -9 0 c-5 0 -12
24 -16 53 -3 28 -22 93 -42 142 l-35 90 -62 63 c-33 35 -74 70 -90 79 l-28 15
-24 -6 -24 -6 0 -40 0 -39 74 -213 c87 -251 144 -395 197 -498 l39 -75 -14
-85 c-8 -47 -28 -133 -45 -191 -17 -59 -31 -119 -31 -134 0 -34 -59 -272 -96
-385 -16 -47 -29 -95 -30 -108 -2 -13 -10 -45 -18 -70 -8 -26 -22 -75 -30
-109 -8 -34 -33 -99 -54 -145 -22 -46 -42 -96 -46 -113 -18 -73 -116 -249
-131 -234 -2 3 16 67 41 144 24 77 44 151 44 165 0 14 12 91 26 170 l26 145
-6 250 c-3 138 -10 274 -14 304 l-9 54 -18 13 c-28 21 -44 17 -57 -13 l-11
-28 -8 -375 c-10 -416 -17 -498 -59 -645 -16 -55 -34 -133 -40 -174 -22 -147
-117 -377 -144 -350 -3 2 -1 63 4 134 19 269 8 599 -25 765 -22 109 -33 276
-41 613 -4 164 -10 300 -15 302 -12 8 -54 -14 -66 -34 -16 -26 -78 -277 -98
-399 l-17 -103 5 -162 c4 -89 11 -189 16 -222 5 -33 21 -132 36 -220 14 -88
31 -198 36 -245 6 -47 16 -116 24 -155 8 -38 22 -122 31 -185 l16 -115 -5 -61
-5 -62 -42 -83 c-24 -46 -47 -100 -51 -119 -4 -19 -18 -75 -31 -125 l-24 -90
-19 -3 -18 -4 8 43 c4 24 8 51 9 59 1 9 5 20 8 25 4 6 12 49 18 95 6 46 13 87
15 90 2 4 -2 87 -10 186 l-13 179 -26 100 c-63 246 -192 525 -287 623 l-31 32
-29 0 -28 0 -12 -22 -11 -21 5 -101 c6 -119 14 -142 89 -266 67 -110 147 -309
160 -395 4 -33 22 -148 39 -255 l30 -195 -1 -136 0 -136 -21 -64 c-12 -35 -27
-76 -35 -91 -8 -15 -14 -35 -14 -45 0 -10 -14 -36 -30 -57 -17 -22 -30 -45
-30 -52 0 -7 -14 -24 -30 -37 -17 -14 -34 -37 -40 -51 -11 -29 -35 -34 -48
-10 l-9 16 8 42 c8 39 23 87 70 214 l22 57 5 279 4 280 -12 90 c-7 50 -19 106
-27 124 l-15 32 -19 0 c-22 0 -62 -51 -82 -105 l-15 -40 -6 -255 -5 -255 9
-40 c5 -22 12 -105 16 -185 l6 -145 -15 -104 -15 -104 -57 -57 c-31 -31 -74
-68 -97 -81 -70 -41 -126 -98 -163 -165 -39 -71 -42 -89 -20 -98 l15 -5 15 29
c8 16 25 35 38 41 12 7 35 23 51 36 45 38 140 82 219 103 40 10 86 23 102 28
54 19 129 31 195 31 89 1 173 11 187 23 l13 10 37 -8 c21 -4 108 -8 193 -9
l155 -1 30 -17 c17 -9 53 -22 80 -30 28 -7 76 -28 108 -46 59 -34 77 -51 223
-216 123 -138 240 -251 299 -289 84 -54 166 -102 240 -138 39 -19 89 -46 111
-61 23 -14 68 -35 100 -46 33 -11 111 -38 174 -59 138 -48 226 -66 423 -88
l147 -16 333 7 c182 4 400 8 482 8 l150 1 110 -18 c119 -19 197 -40 233 -63
24 -15 52 -11 52 7 0 5 -33 26 -72 46 -40 20 -110 58 -155 85 l-81 49 -69 78
c-102 115 -172 206 -245 317 l-66 100 -89 85 -88 85 -108 70 c-59 39 -129 84
-155 102 -26 18 -97 60 -159 93 l-112 61 -210 70 -209 70 -79 4 c-43 2 -121 9
-173 15 l-95 11 -93 -6 c-120 -7 -317 -47 -397 -80 -16 -7 -51 -18 -78 -25
-26 -7 -50 -17 -53 -21 -3 -5 -12 -9 -21 -9 -8 0 -59 -16 -112 -36 l-96 -37
-102 -5 -103 -5 0 10 c0 13 195 70 302 89 46 7 99 20 118 28 28 11 243 65 355
89 50 11 -72 5 -180 -8 -65 -8 -124 -15 -129 -15 l-10 0 10 10 c5 5 32 13 59
16 28 4 70 16 95 27 25 11 65 24 90 28 25 4 72 14 105 22 88 22 187 37 198 30
5 -3 12 -1 16 5 l6 11 190 6 c105 3 215 7 245 10 30 2 122 7 204 11 l148 6
-22 -29 c-12 -17 -25 -46 -29 -66 l-9 -36 19 -30 c10 -16 30 -37 44 -47 l25
-16 54 -2 54 -1 21 19 21 19 41 -28 41 -29 59 -4 59 -4 34 34 c19 19 38 48 41
64 3 16 16 48 28 72 l22 43 25 -5 c14 -3 90 -10 169 -16 146 -11 265 -32 311
-55 14 -7 47 -16 73 -20 51 -8 65 -19 49 -38 -6 -7 -15 -31 -22 -55 l-11 -43
11 -34 c6 -19 25 -46 42 -60 l31 -26 38 6 38 7 18 -23 c10 -12 26 -30 36 -41
l17 -18 50 0 50 0 17 26 17 26 0 47 -1 46 -22 43 c-12 24 -20 50 -18 56 l5 13
49 -3 c26 -2 73 -9 103 -16 l55 -13 5 -76 5 -76 30 -48 c37 -59 69 -84 118
-92 l37 -6 8 24 9 24 49 1 c27 1 61 6 76 12 l27 11 13 43 c7 24 17 48 23 54
l10 11 100 -27 c55 -16 152 -46 215 -68 64 -22 162 -50 219 -62 140 -29 311
-78 339 -96 l24 -16 -6 -23 c-3 -12 -1 -58 4 -100 l10 -78 18 -31 c17 -29 75
-76 94 -76 16 0 68 63 79 97 12 37 14 38 49 18 14 -8 35 -14 47 -15 l22 0 16
30 c8 16 15 41 15 55 l0 26 23 -7 c12 -3 47 -17 77 -29 30 -12 90 -33 132 -46
l77 -23 -24 -26 c-59 -62 -79 -152 -46 -207 l20 -31 70 -23 70 -23 20 19 c12
10 23 33 27 51 7 39 3 37 75 24 l53 -10 10 10 c5 5 18 10 27 10 l17 0 12 30
c7 16 10 47 8 69 l-3 40 25 -5 c14 -3 57 -16 95 -29 39 -12 85 -26 102 -30
l33 -7 -5 -24 c-3 -13 -7 -35 -10 -48 -3 -13 -1 -44 4 -69 l8 -45 34 -30 34
-30 46 -6 c58 -8 72 -3 86 33 l10 28 39 8 c21 4 47 11 58 17 l19 10 -6 58 -6
58 42 -5 c23 -3 58 -9 77 -15 19 -5 82 -13 139 -18 57 -5 105 -10 106 -12 2
-2 -5 -34 -15 -73 -11 -38 -19 -91 -19 -117 l-1 -48 27 -17 26 -18 41 2 c119
5 177 11 190 22 l14 12 22 -30 21 -31 47 -20 47 -21 31 6 c35 6 58 27 73 69
l11 28 23 -5 c12 -3 43 -13 70 -23 l47 -16 40 26 40 26 0 33 c-1 17 -10 57
-21 87 -11 30 -22 63 -25 72 l-6 17 44 11 43 12 34 -8 34 -9 33 -102 33 -101
31 -44 c40 -54 63 -67 122 -68 134 -1 181 71 122 188 l-26 52 11 14 c6 7 30
18 53 25 58 17 116 52 156 94 l33 34 -6 26 c-4 14 -18 36 -32 49 l-25 23 -83
0 -83 -1 9 18 c5 9 9 30 9 47 l0 30 -29 20 c-16 12 -36 21 -44 21 -63 0 -190
-88 -266 -185 -46 -59 -58 -66 -41 -20 l10 27 -13 26 -12 27 -43 9 -42 9 0 41
c0 99 -78 90 -210 -22 l-65 -55 -3 16 c-2 9 -23 25 -46 36 l-42 18 3 59 c2 33
-1 66 -6 74 l-10 14 -47 -12 -47 -13 -59 -50 c-32 -28 -68 -65 -80 -81 l-21
-31 -11 -66 -11 -66 -125 2 c-116 3 -260 19 -260 29 0 3 13 22 30 42 16 21 32
52 36 70 l6 32 -12 31 -13 31 -24 9 -23 9 0 28 c0 15 -7 38 -16 51 l-16 23
-22 -6 c-92 -23 -246 -180 -246 -251 l0 -15 -27 0 c-42 0 -213 41 -213 51 0 5
6 9 14 9 41 0 33 91 -13 144 l-16 18 0 60 0 60 -20 15 -20 15 -40 -5 -40 -4
-45 -29 c-75 -48 -144 -111 -175 -159 l-28 -46 -16 6 c-9 4 -43 13 -76 21 -33
8 -90 24 -126 35 -36 10 -77 19 -91 19 -14 0 -31 7 -38 15 l-12 15 19 0 c32 0
99 37 127 70 l26 32 0 27 0 28 -22 20 c-13 11 -31 23 -40 26 l-18 6 0 44 0 45
-14 11 c-8 7 -37 13 -64 13 l-50 1 -54 -26 -55 -27 -54 -59 c-30 -33 -64 -72
-75 -87 l-22 -28 -63 16 c-177 44 -383 102 -459 130 -47 16 -134 43 -195 59
-207 55 -247 71 -200 83 42 11 93 49 106 78 l11 26 -11 20 c-15 28 -60 62 -81
62 l-17 0 -7 39 -6 39 -16 6 c-71 27 -188 -35 -300 -160 l-32 -35 -61 14 c-73
17 -79 21 -59 44 23 27 30 57 19 87 l-11 26 -45 0 -45 0 0 26 c0 14 -5 34 -10
45 l-11 19 -32 0 c-49 0 -132 -44 -195 -103 -31 -30 -65 -57 -76 -61 l-19 -6
-136 34 c-146 37 -235 51 -403 64 l-108 9 -19 25 c-11 14 -43 35 -72 47 l-51
23 11 11 11 11 0 59 c0 106 -18 116 -119 65 l-64 -33 -81 -85 -81 -86 -295 -2
c-424 -4 -672 -29 -845 -86 -22 -7 -53 -16 -69 -20 l-29 -7 57 52 c31 28 61
61 67 71 l11 20 -51 -27 c-28 -16 -78 -50 -110 -76 -88 -70 -187 -109 -282
-109 -16 0 -29 -4 -29 -9 0 -6 -51 -26 -112 -46 -62 -20 -124 -41 -138 -45
-146 -50 -387 -109 -448 -111 -70 -3 -76 7 -10 16 29 4 114 24 188 44 74 21
158 44 185 51 28 7 61 20 75 28 39 25 149 61 205 68 54 7 99 29 90 44 l-6 10
88 40 c48 23 95 45 103 51 8 5 30 16 48 24 17 9 32 22 32 30 l0 15 64 29 c35
16 81 34 102 41 77 24 152 59 259 120 39 22 80 40 93 40 28 0 134 60 177 99
66 61 451 264 521 275 l39 5 55 -39 c30 -22 75 -49 100 -60 25 -12 57 -27 71
-35 14 -8 61 -25 103 -39 l78 -26 211 -16 211 -17 160 12 c89 7 224 19 301 26
l140 13 93 27 92 26 48 32 c144 98 345 295 390 384 64 125 117 319 124 452 l3
53 40 4 c22 2 50 2 63 -1 l22 -5 -24 -48 c-13 -26 -31 -71 -40 -101 l-16 -55
0 -81 0 -82 25 -133 25 -133 0 -82 0 -83 19 -43 c19 -43 94 -135 220 -270 l64
-69 96 -49 c53 -27 141 -66 196 -86 55 -20 120 -49 145 -65 25 -15 92 -53 150
-84 58 -32 116 -64 130 -72 14 -8 57 -31 95 -51 39 -19 82 -44 97 -54 14 -11
31 -19 36 -19 6 0 46 -24 89 -53 114 -78 283 -165 355 -182 l63 -15 163 -7
163 -6 82 12 c45 6 129 13 187 14 l105 4 100 42 c55 24 132 55 170 69 93 36
93 35 160 127 73 100 198 221 290 282 76 50 106 75 205 175 217 217 293 313
371 473 l49 100 28 115 c16 63 41 165 56 227 l26 112 0 78 c0 122 -17 240 -47
332 l-28 84 -16 4 -16 4 14 52 c7 29 14 97 14 152 l1 100 -22 82 c-26 99 -137
331 -187 391 -53 65 -78 86 -193 164 l-105 71 -101 100 -102 99 -30 66 c-16
37 -37 87 -46 112 -8 25 -33 66 -53 92 l-38 47 -82 35 c-81 34 -120 48 -358
123 l-120 38 -150 -1 -150 0 -85 -18 c-110 -23 -186 -49 -290 -101 l-85 -43
-35 24 c-19 14 -55 31 -80 38 -25 7 -76 28 -115 46 -238 109 -375 136 -530
107 l-70 -14 -71 -36 c-39 -20 -93 -49 -120 -64 -27 -16 -71 -37 -98 -47 -26
-10 -76 -40 -111 -66 -34 -26 -120 -85 -191 -132 -117 -78 -176 -126 -227
-184 -9 -12 -24 -45 -31 -75 l-14 -54 8 -40 c4 -22 13 -54 20 -72 l11 -32 -16
-128 c-9 -70 -22 -155 -30 -189 -8 -33 -21 -105 -29 -160 -9 -54 -25 -138 -37
-187 l-21 -87 6 -53 c4 -28 17 -71 29 -94 12 -23 48 -92 80 -153 31 -61 57
-116 57 -122 l0 -11 -47 6 c-26 3 -57 1 -69 -3 l-21 -8 -6 63 c-15 157 -100
384 -189 505 -10 14 -28 43 -39 65 -12 22 -39 65 -61 96 l-39 57 -159 145
-158 146 -72 43 c-39 24 -98 66 -129 94 l-57 52 -27 55 -27 56 0 205 0 206 33
0 c82 0 187 56 174 92 -2 7 -1 20 4 29 4 9 9 107 10 218 l2 202 -29 30 c-39
41 -132 91 -250 135 l-99 37 -195 1 -195 1 -75 -24 -75 -23 -45 -36 c-25 -19
-49 -39 -53 -43 -19 -15 -39 -173 -44 -345 l-6 -181 12 -21 11 -22 56 -16 c31
-9 76 -19 102 -22 l45 -7 -2 -234 -3 -235 -25 -50 c-32 -65 -55 -90 -123 -133
-30 -20 -86 -61 -125 -92 -38 -31 -101 -80 -140 -109 -126 -95 -225 -186 -296
-271 l-71 -84 -60 -121 c-113 -230 -155 -380 -165 -591 l-5 -100 22 -105 c41
-207 118 -338 263 -449 l37 -29 -42 -25 c-24 -13 -111 -59 -194 -101 l-151
-77 -26 12 -26 12 -17 -14 -16 -13 -9 17 c-22 38 -37 14 -45 -72 -6 -67 1 -60
-103 -111 -46 -23 -128 -68 -182 -101 -54 -33 -114 -66 -135 -75 l-37 -15 -23
5 c-29 8 -32 26 -5 26 25 0 37 18 17 26 l-15 6 -27 -21 c-15 -12 -31 -21 -37
-21 -6 0 -25 -11 -43 -25 -44 -34 -48 -32 -19 11 26 38 31 54 18 54 -9 0 -113
-99 -159 -151 l-30 -34 -85 -41 c-198 -98 -275 -134 -286 -134 -17 0 -115 -51
-143 -75 l-25 -21 -95 -27 c-148 -42 -380 -72 -380 -49 0 4 37 30 81 57 45 28
134 83 198 124 64 41 141 89 172 107 169 100 359 281 511 485 119 161 147 214
132 253 l-6 16 -40 0 -39 0 -72 -33 c-40 -19 -97 -54 -127 -78 -30 -25 -71
-56 -90 -69 -19 -13 -107 -92 -195 -174 -88 -82 -196 -179 -240 -216 -44 -37
-128 -113 -187 -169 l-106 -102 -34 -57 c-43 -74 -45 -80 -22 -62 l19 15 -19
-22 c-10 -13 -23 -20 -27 -17 -5 3 -17 -9 -27 -25 -17 -30 -47 -49 -60 -37
-14 14 147 291 182 314 6 4 22 31 36 61 29 64 99 139 153 167 46 23 173 129
259 216 35 35 106 92 158 128 52 36 118 85 147 110 28 25 85 74 127 110 42 36
76 69 76 73 0 4 89 96 199 205 206 205 227 231 238 307 l6 45 -19 0 c-28 0
-92 -37 -140 -79 -22 -20 -72 -63 -109 -96 -38 -33 -87 -76 -109 -96 -23 -20
-66 -51 -96 -69 -95 -57 -163 -103 -241 -165 -84 -67 -318 -308 -358 -370 -14
-22 -40 -54 -56 -71 -36 -37 -91 -113 -101 -137 -7 -20 -34 -23 -34 -3 0 22
37 105 63 139 109 147 219 311 247 367 13 25 40 70 60 101 21 30 45 71 53 90
19 44 37 60 127 116 41 25 100 62 130 83 30 20 103 62 163 93 164 85 246 148
421 317 174 170 278 291 296 345 6 19 16 35 21 35 5 0 9 20 9 44 l0 45 -19 6
-18 5 -44 -19 c-73 -31 -167 -107 -310 -250 -74 -75 -181 -172 -238 -216 -259
-201 -328 -255 -355 -280 -42 -39 -41 -25 4 41 22 32 40 64 40 70 0 20 135
323 187 419 6 11 27 54 46 95 l36 75 81 87 c98 106 369 299 490 350 139 59
186 81 244 116 37 23 72 42 77 42 5 0 9 4 9 8 0 4 13 15 28 24 16 9 57 42 92
74 35 31 104 87 154 124 50 37 126 103 169 148 l77 80 0 26 0 26 -27 6 -27 7
-71 -17 -70 -18 -95 -55 c-52 -31 -115 -71 -140 -88 -46 -33 -198 -125 -206
-125 -3 0 -42 -28 -86 -62 -45 -35 -122 -94 -172 -131 -50 -38 -102 -79 -115
-90 l-24 -22 13 25 c7 14 26 42 43 63 l30 38 12 -5 c7 -2 32 16 56 40 24 25
79 72 121 104 43 33 119 100 170 149 186 179 335 313 427 384 52 39 138 115
191 167 l97 95 32 88 c52 148 46 160 -66 122 l-78 -27 -174 -161 c-196 -182
-349 -344 -485 -516 -100 -125 -194 -227 -202 -218 -8 7 65 169 81 182 7 6 34
57 59 114 26 57 58 124 71 149 13 26 44 100 70 164 l46 117 8 73 8 73 -9 18
-9 17 -24 0 -24 0 -54 -64 c-30 -36 -61 -82 -67 -103 -17 -52 -59 -133 -68
-133 -14 0 -36 -57 -91 -230 -96 -303 -103 -324 -116 -345 -8 -11 -17 -38 -20
-60 -4 -22 -13 -65 -20 -95 -8 -30 -16 -66 -19 -80 -3 -14 -27 -55 -54 -92
-27 -37 -52 -80 -55 -95 -3 -16 -27 -57 -54 -92 -26 -35 -64 -88 -84 -118 -20
-30 -59 -78 -87 -106 -67 -70 -117 -138 -147 -202 -14 -29 -32 -58 -39 -64
l-14 -12 14 68 c7 37 25 127 39 198 27 136 54 225 67 225 4 0 16 20 27 45 24
55 83 146 129 200 61 72 265 415 291 490 7 22 22 58 32 79 l19 40 0 51 c0 51
-17 105 -34 105 -42 0 -119 -111 -246 -355 -35 -66 -71 -131 -80 -145 -10 -14
-28 -45 -40 -70 l-24 -45 -5 23 c-7 28 3 223 18 322 18 124 49 202 198 501
l143 285 6 60 6 59 -11 57 c-20 94 -38 89 -116 -37 -84 -135 -140 -257 -176
-382 -18 -62 -36 -110 -39 -108 -4 2 -10 57 -13 122 -3 65 -16 163 -27 218
l-21 100 -41 84 c-59 122 -102 156 -143 111z m78 -97 c28 -55 81 -270 96 -388
6 -44 15 -102 19 -128 l9 -48 -10 -6 c-11 -7 -27 15 -27 39 0 33 -23 113 -57
202 -45 117 -73 237 -73 314 l0 62 10 0 c5 0 20 -21 33 -47z m438 -126 c-7
-34 -25 -89 -40 -122 -62 -133 -194 -395 -198 -392 -6 6 34 148 74 267 36 108
96 229 139 279 13 16 24 35 25 42 l1 14 5 -13 c3 -8 0 -41 -6 -75z m2047 -18
c54 -9 208 -71 270 -109 l32 -20 0 -23 0 -23 -62 -36 c-89 -51 -163 -87 -236
-115 l-64 -24 -97 -1 -96 -2 -61 26 c-61 25 -227 129 -240 149 -3 6 -2 15 4
21 l11 11 43 -20 c24 -11 66 -30 95 -42 l52 -21 89 -6 89 -7 54 13 c56 13 197
67 214 82 l9 8 -19 0 c-11 0 -42 -7 -69 -15 l-49 -15 -134 0 -133 0 -109 35
c-60 19 -114 42 -121 49 l-11 15 20 20 c12 12 30 21 40 21 11 0 22 4 25 9 6 9
96 29 156 34 53 5 238 -3 298 -14z m-858 -213 c0 -2 -9 -33 -20 -68 l-20 -64
-104 -100 c-57 -55 -130 -120 -163 -144 -71 -54 -217 -183 -338 -299 -50 -47
-121 -115 -158 -150 -71 -67 -158 -133 -165 -126 -11 11 107 139 223 240 31
28 71 70 88 95 135 198 473 537 602 604 28 15 55 21 55 12z m-675 -43 c-5 -10
-15 -45 -23 -78 -8 -33 -30 -99 -49 -146 -18 -48 -33 -90 -33 -95 0 -15 -94
-199 -112 -218 -9 -10 -20 -33 -24 -50 -3 -17 -14 -47 -25 -66 -16 -32 -32
-65 -109 -237 -13 -29 -28 -53 -33 -53 l-9 0 7 18 c4 9 11 33 15 52 4 19 24
78 45 130 20 52 59 158 86 234 27 77 52 142 57 145 5 3 23 45 40 93 52 146
133 288 164 288 l10 0 -7 -17z m1019 -52 l55 -50 83 -26 83 -27 85 -5 c100 -6
276 11 326 32 19 8 73 39 119 69 l84 55 3 -142 3 -142 -35 -22 c-19 -12 -48
-23 -65 -23 -32 0 -115 -34 -126 -51 -7 -11 -3 -281 6 -405 l5 -71 19 -44 c31
-69 62 -99 252 -239 46 -34 111 -90 144 -124 33 -34 75 -68 92 -75 l33 -13 37
-52 c20 -28 62 -80 93 -116 97 -112 183 -254 224 -370 l15 -45 15 -201 15
-201 -10 -94 -11 -94 -32 -75 -33 -75 -16 1 c-9 1 -19 -7 -22 -17 l-6 -19
-157 0 c-86 0 -204 7 -262 15 -119 16 -131 13 -69 -14 l44 -19 130 -17 c72
-10 163 -19 203 -22 l73 -5 -4 -12 c-6 -19 -52 -36 -103 -38 -55 -2 -247 26
-289 42 -14 5 -62 10 -106 10 l-79 0 0 10 c0 6 9 10 19 10 11 0 23 5 26 10 l6
10 -35 0 -36 0 0 13 c0 7 7 22 15 33 20 27 18 36 -7 32 l-23 -3 -16 -34 c-16
-34 -50 -60 -81 -61 -19 0 -27 -10 -33 -42 -5 -23 -24 -40 -37 -32 -5 3 -17 2
-29 -1 l-20 -7 15 -17 c23 -25 21 -28 -31 -45 -138 -45 -463 -56 -463 -16 0 6
7 10 15 10 16 0 54 16 115 50 19 10 44 19 55 20 11 0 38 9 60 19 l40 18 -84
-5 -83 -5 -8 13 -7 12 -56 -12 -55 -13 -239 7 c-247 6 -263 8 -352 25 -70 14
-214 73 -256 105 -18 14 -43 46 -55 71 l-22 46 7 27 c4 15 8 61 10 102 2 41
12 131 23 200 11 69 25 154 31 190 6 36 17 88 25 115 19 64 45 144 55 170 5
11 9 23 10 27 9 37 59 130 84 157 99 106 161 165 242 226 50 38 115 89 145
115 72 61 174 125 233 147 26 9 47 21 47 25 0 4 17 32 38 62 l39 55 6 75 7 75
-15 98 c-8 54 -15 150 -15 214 l0 116 -19 17 -18 17 -82 13 c-45 7 -86 17 -91
22 l-10 10 10 53 c5 30 10 91 10 137 l0 84 10 0 c5 0 34 -22 64 -49z m-2092
-151 l46 -40 41 -79 41 -79 19 -118 c11 -66 22 -159 25 -209 l6 -89 -8 9 c-5
6 -28 64 -51 130 -24 66 -61 170 -83 230 -22 61 -44 125 -49 142 -6 18 -19 52
-29 75 -36 79 -24 87 42 28z m5048 -70 c52 -18 136 -51 185 -75 50 -23 116
-52 148 -65 l57 -22 -11 -15 c-7 -8 -18 -12 -25 -9 -7 3 -16 1 -20 -5 -3 -5
-76 -57 -162 -114 -86 -57 -176 -123 -199 -147 l-43 -43 -6 -33 -6 -32 23 0
24 1 40 35 c73 63 204 164 214 164 5 0 11 3 13 8 4 10 112 81 168 111 25 13
52 30 61 37 8 8 21 14 27 14 7 0 31 14 54 30 22 17 46 30 52 30 6 0 32 11 58
25 l48 25 137 21 138 21 110 -7 c135 -8 183 -17 310 -56 190 -59 334 -124 377
-170 27 -29 55 -105 44 -117 -3 -3 0 -12 7 -21 8 -9 24 -42 38 -74 l24 -59 69
-61 c158 -141 201 -182 210 -199 5 -10 15 -18 22 -18 64 0 244 -165 244 -224
0 -7 23 -57 50 -113 l50 -101 20 -89 c11 -48 25 -112 32 -141 l11 -52 -11 -25
c-7 -14 -12 -35 -12 -45 0 -43 -77 -244 -107 -280 -7 -8 -29 -34 -48 -56 -19
-23 -35 -44 -35 -48 0 -14 -85 -87 -104 -89 l-20 -2 -9 35 c-21 83 -47 277
-47 358 l-1 67 -15 40 c-15 39 -20 57 -44 158 l-12 48 -51 77 c-96 143 -317
352 -373 352 -8 0 -29 7 -46 16 -17 9 -47 17 -67 19 -20 1 -90 12 -156 25 -66
12 -148 23 -183 23 l-63 2 -9 -15 c-6 -8 -9 -22 -7 -30 l2 -15 80 -8 c44 -4
145 -19 225 -34 l145 -26 69 -36 69 -36 99 -94 c126 -120 148 -158 229 -391
l30 -85 15 -135 c8 -74 19 -171 24 -214 39 -315 -42 -598 -227 -791 -106 -111
-143 -123 -428 -135 l-200 -9 -65 -20 c-36 -12 -79 -21 -97 -21 -47 0 -135
-36 -185 -75 -23 -19 -47 -35 -51 -35 -5 0 -29 -18 -53 -39 l-45 -39 -98 -36
-98 -36 -69 0 c-90 0 -348 34 -399 53 -22 7 -52 17 -67 21 l-28 6 0 -14 0 -14
63 -20 c117 -38 394 -92 467 -92 91 0 258 57 302 102 21 22 44 39 150 110 l39
26 92 17 c51 9 128 25 172 37 l80 20 155 2 155 3 65 18 c93 25 115 38 197 124
129 133 175 227 229 471 19 85 39 157 45 158 70 25 259 248 304 359 13 32 28
59 33 61 26 8 48 -284 33 -448 l-11 -118 -36 -124 c-80 -277 -186 -476 -295
-557 -22 -16 -53 -49 -68 -72 -15 -24 -61 -77 -101 -116 l-74 -73 -56 -28
c-59 -30 -128 -80 -170 -123 -14 -13 -34 -31 -45 -39 -12 -8 -36 -35 -55 -60
-79 -103 -121 -141 -255 -226 -30 -18 -92 -47 -189 -85 l-49 -20 -146 -12
c-80 -7 -218 -12 -306 -11 l-160 0 -58 13 c-108 24 -174 56 -412 201 -211 128
-433 260 -462 272 -15 7 -65 34 -111 60 -46 27 -88 48 -94 48 -6 0 -36 13 -67
30 -31 16 -88 42 -127 58 -38 15 -100 49 -136 75 -72 52 -262 243 -253 256 3
5 -2 25 -10 45 -8 19 -15 59 -15 88 0 29 -7 85 -16 123 -18 78 -29 220 -29
370 l0 101 18 27 c9 15 24 27 31 27 l14 0 7 -76 c6 -69 24 -171 55 -324 30
-144 167 -340 291 -415 128 -78 306 -147 439 -171 l95 -17 225 0 225 -1 74 17
c71 16 101 30 101 48 0 18 -72 20 -225 7 -349 -29 -606 11 -784 121 -36 22
-79 43 -95 47 -35 7 -114 62 -136 94 -8 12 -25 33 -36 47 -23 27 -73 122 -99
187 -19 50 -62 311 -71 438 l-6 98 15 24 16 23 -10 10 -9 9 9 29 c9 29 23 81
41 155 4 19 19 87 33 150 24 107 59 221 120 380 24 65 110 215 147 258 11 12
20 28 20 35 0 53 476 244 615 247 22 0 65 7 95 15 30 8 111 18 180 20 l125 6
74 -15 c98 -19 131 -6 77 30 -85 55 -259 63 -501 24 -38 -6 -101 -15 -140 -19
-82 -10 -159 -36 -306 -103 -58 -26 -111 -48 -117 -48 -14 0 -105 -72 -157
-125 -57 -59 -98 -123 -135 -213 -18 -42 -36 -81 -41 -87 -5 -5 -9 -18 -9 -29
0 -28 -22 -86 -33 -86 -5 0 -7 -6 -4 -14 3 -7 -1 -25 -8 -40 -25 -47 -64 -190
-71 -256 -4 -36 -11 -76 -17 -90 -5 -14 -19 -65 -31 -115 l-22 -90 -42 80
c-23 44 -48 91 -56 105 -9 14 -25 48 -37 75 l-22 50 -4 110 -4 110 14 50 c47
165 66 252 77 350 6 61 15 126 19 146 10 44 5 124 -13 202 l-13 57 49 75 49
74 108 71 c59 39 116 79 126 90 10 11 22 20 26 20 5 0 41 22 81 49 203 138
311 191 453 225 11 3 58 3 105 2 l85 -4 95 -32z m-4420 -134 c0 -65 -99 -299
-161 -381 -22 -29 -39 -55 -39 -58 0 -11 -72 -120 -104 -159 -17 -20 -39 -48
-49 -63 -26 -37 -32 -24 -17 32 18 64 52 133 110 218 26 39 73 122 105 185
101 205 155 283 155 226z m930 -214 c0 -16 -176 -172 -251 -222 -20 -14 -82
-64 -136 -112 l-100 -86 -100 -56 c-55 -31 -105 -56 -111 -56 -13 0 -204 -91
-252 -120 -19 -12 30 42 110 119 79 78 150 141 156 141 6 0 19 10 30 21 26 30
146 110 219 147 33 16 139 75 235 131 165 95 200 112 200 93z m-2189 -669 c-2
-82 2 -260 9 -398 l12 -250 24 -144 24 -145 -1 -320 c0 -175 -4 -326 -7 -335
l-6 -16 -7 25 c-4 14 -7 45 -8 70 -1 25 -6 61 -11 80 -6 19 -15 98 -20 175 -5
77 -14 154 -19 170 -12 39 -37 158 -56 268 -8 48 -22 126 -31 175 l-16 87 5
155 c4 85 13 196 21 245 15 88 76 305 86 305 3 0 3 -66 1 -147z m422 -373 c2
-177 -7 -316 -27 -420 l-13 -65 4 330 c2 182 6 346 10 365 l6 35 9 -40 c5 -22
10 -114 11 -205z m1027 -25 c0 -42 -116 -181 -306 -370 -190 -189 -178 -178
-298 -257 -6 -4 -27 -14 -46 -23 -19 -8 -42 -19 -50 -24 -8 -5 -45 -23 -81
-39 -37 -17 -108 -58 -159 -92 -51 -33 -94 -59 -96 -57 -10 10 265 234 386
315 l85 56 180 181 c187 186 262 254 324 292 34 22 61 29 61 18z m-1918 -455
c16 -30 40 -71 53 -90 13 -19 34 -60 46 -90 13 -30 40 -84 61 -119 l37 -65 11
-55 c6 -31 21 -92 32 -136 29 -111 47 -269 47 -405 l-1 -115 -12 -35 -13 -35
-6 40 c-4 22 -14 119 -22 215 l-16 175 -61 175 c-65 187 -91 244 -144 324
l-33 51 -21 80 c-11 44 -20 95 -20 113 l0 33 16 -3 c9 -2 30 -28 46 -58z
m1588 -257 c0 -5 -77 -84 -173 -178 -95 -93 -206 -205 -246 -247 -73 -78 -85
-88 -241 -215 -47 -38 -97 -80 -112 -94 -49 -44 -96 -79 -105 -79 -6 0 -58
-50 -118 -111 l-107 -111 -10 10 -10 10 48 63 c25 35 167 183 315 329 l267
265 39 14 c33 12 263 188 303 232 60 67 149 133 150 112z m-1575 -580 l18 -78
-6 -260 -6 -260 -14 -75 c-8 -41 -21 -88 -28 -105 l-14 -30 -6 240 c-6 236 -2
578 7 623 2 12 11 22 18 22 l14 0 17 -77z m537 -35 c-2 -10 -11 -18 -18 -18
l-14 0 0 23 c0 13 6 29 12 35 l13 13 6 -18 c3 -10 4 -26 1 -35z m728 -43 c0
-8 -22 -46 -50 -84 -27 -38 -50 -73 -50 -79 0 -14 -36 -58 -190 -237 -65 -76
-164 -163 -208 -185 -15 -8 -45 -29 -68 -46 -22 -18 -72 -49 -110 -70 -38 -21
-94 -55 -124 -75 -30 -20 -80 -49 -110 -64 -30 -15 -72 -38 -92 -51 -47 -30
-50 -30 -37 4 18 48 58 97 120 148 188 152 280 233 426 375 89 87 186 176 215
198 29 22 72 57 95 76 38 33 157 104 176 105 4 0 7 -7 7 -15z m1728 -532 l3
-41 -33 -31 c-18 -18 -45 -35 -61 -38 -15 -3 -30 -10 -33 -14 -3 -5 -16 -9
-30 -9 -13 0 -24 -4 -24 -10 0 -14 -23 -12 -45 4 l-19 13 27 27 c15 15 27 29
27 32 0 23 137 115 165 112 l20 -3 3 -42z m99 -168 c13 -14 23 -34 23 -44 l0
-19 -27 -5 -28 -5 -48 18 c-27 10 -59 26 -72 34 l-24 16 5 14 c7 18 43 25 104
21 l44 -3 23 -27z m1013 -15 c0 -38 -114 -110 -175 -110 -41 0 -42 2 -14 41
23 33 96 79 142 89 38 8 47 5 47 -20z m-1336 -19 l17 -19 6 -55 6 -55 -22 -11
-21 -12 -47 23 -48 23 -3 31 -3 31 26 32 27 31 22 0 c13 0 31 -9 40 -19z m53
-8 c-4 -3 -10 -3 -14 0 -3 4 0 7 7 7 7 0 10 -3 7 -7z m118 -33 c44 -22 85 -40
93 -40 34 0 35 -72 1 -90 -74 -40 -222 77 -193 153 8 23 8 23 99 -23z m1710
10 c10 -16 -15 -41 -61 -60 -23 -10 -64 -39 -93 -64 -57 -51 -53 -48 -75 -40
-39 15 -1 57 124 133 67 41 94 49 105 31z m-455 -28 c0 -27 -39 -59 -81 -66
-57 -10 -96 14 -48 29 12 4 37 18 56 31 20 13 44 24 54 24 l19 0 0 -18z m554
-81 l18 -20 -38 -16 c-33 -13 -163 -45 -188 -45 -4 0 5 13 21 30 37 38 99 69
139 70 l31 0 17 -19z m-849 -4 l18 -14 -11 -33 c-7 -18 -12 -45 -12 -59 0 -15
-7 -37 -16 -49 l-15 -22 -18 10 c-10 5 -25 23 -34 41 l-15 32 10 31 c21 63 58
88 93 63z m124 -80 c37 -78 54 -147 38 -163 -10 -10 -62 14 -85 39 l-20 22 -2
85 c-3 102 -3 100 14 100 l14 0 41 -83z m-1864 28 c55 -8 147 -28 205 -45
l105 -30 140 -67 c115 -56 241 -123 302 -161 13 -8 157 -108 219 -152 56 -40
213 -212 247 -271 16 -27 41 -62 56 -77 14 -15 42 -47 61 -72 63 -82 164 -189
207 -220 24 -17 43 -38 43 -46 l0 -14 -22 0 c-13 0 -59 16 -103 36 -44 20
-110 47 -147 60 -65 22 -222 100 -300 147 -80 49 -408 237 -483 278 -44 23
-100 56 -123 72 -72 48 -456 226 -571 263 -220 72 -601 153 -746 158 l-40 1 0
15 0 14 85 28 c232 78 338 95 590 97 l175 1 100 -15z m2245 -92 l5 -51 18 -19
c9 -11 20 -34 23 -52 l7 -33 -32 16 c-18 10 -41 31 -51 49 l-20 32 0 58 0 58
23 -3 22 -3 5 -52z m145 -2 c22 -10 49 -28 60 -40 l19 -22 -10 -16 c-6 -9 -17
-21 -26 -27 l-16 -9 -31 13 -32 13 -24 42 c-41 69 -22 84 60 46z m1373 -77
l22 -6 0 -17 c0 -23 -40 -59 -127 -115 -72 -46 -96 -53 -122 -37 l-15 9 32 39
c48 58 53 62 112 99 57 36 62 37 98 28z m-4548 -29 c69 -13 177 -36 240 -50
63 -15 153 -35 200 -45 47 -10 97 -23 110 -28 14 -5 52 -18 85 -27 33 -10 107
-41 165 -70 58 -28 132 -62 165 -75 33 -13 118 -57 189 -98 70 -40 146 -80
168 -88 23 -8 73 -36 112 -62 39 -27 114 -72 166 -101 52 -29 133 -75 180
-103 47 -28 108 -59 135 -70 28 -11 86 -38 130 -60 43 -22 99 -43 124 -47 24
-3 46 -11 48 -16 l3 -10 -198 -5 c-108 -3 -330 -5 -492 -5 l-295 1 -180 32
c-180 32 -206 38 -340 86 -136 48 -172 63 -241 103 -38 22 -97 54 -130 71 -34
17 -110 63 -169 103 l-107 72 -77 76 c-42 42 -101 105 -130 141 -79 98 -170
188 -223 223 -48 30 -59 46 -35 48 6 0 39 6 72 14 33 7 92 14 130 14 l70 1
125 -25z m4650 -108 c0 -34 -90 -77 -161 -77 l-39 0 0 15 c0 8 1 15 3 15 1 0
40 14 87 30 96 34 110 36 110 17z m550 -80 c0 -18 -23 -36 -93 -72 -32 -17
-78 -47 -102 -67 -47 -41 -55 -45 -55 -25 0 22 63 81 122 115 29 16 62 37 73
46 25 19 55 21 55 3z m-874 -49 c49 -52 66 -131 36 -169 l-19 -22 -16 6 c-34
13 -77 148 -61 191 l6 15 21 -5 c11 -2 26 -9 33 -16z m169 -61 c18 -26 19 -37
3 -37 -26 1 -88 68 -88 94 0 11 71 -37 85 -57z m1285 -4 l0 -25 -30 -28 c-24
-23 -117 -83 -152 -98 -18 -8 -6 34 18 65 30 40 143 125 156 117 4 -3 8 -17 8
-31z m-546 -25 c22 -31 21 -35 -21 -49 -33 -11 -160 -15 -169 -6 -7 7 130 75
153 76 l22 1 15 -22z m1198 -44 c-5 -27 -48 -81 -80 -101 -15 -9 -37 -26 -49
-37 -13 -10 -26 -17 -29 -14 -11 12 28 70 84 123 58 55 80 64 74 29z m368 -17
c0 -24 -32 -58 -117 -122 l-86 -65 -23 0 -23 0 5 14 c8 20 214 186 231 186 7
0 13 -6 13 -13z m456 -40 l-6 -32 -65 -43 c-56 -37 -123 -72 -140 -72 -40 0
91 141 166 178 l44 22 4 -11 c1 -5 0 -24 -3 -42z m-1416 24 l0 -20 -37 -31
c-42 -34 -103 -56 -129 -46 l-17 6 34 26 c109 81 149 98 149 65z m-887 -22
c-3 -11 2 -47 12 -79 l18 -58 -7 -26 c-3 -14 -15 -30 -27 -36 l-20 -11 -34 21
-35 22 -7 26 -6 26 23 43 c39 73 96 123 83 72z m140 -20 l37 -10 16 -24 15
-24 -3 -28 -3 -28 -24 -3 c-12 -2 -34 -1 -47 2 l-24 6 -14 29 c-42 80 -29 101
47 80z m1412 -30 l7 -20 -19 -21 c-26 -28 -90 -60 -116 -56 l-22 3 57 58 c60
61 83 70 93 36z m373 -18 c8 -5 12 -17 10 -27 l-3 -19 -65 -32 c-61 -31 -130
-43 -130 -24 0 4 17 20 39 34 21 14 51 37 66 51 28 26 59 33 83 17z m557 -33
c34 -15 29 -24 -39 -66 l-58 -36 -51 0 c-62 -1 -127 12 -127 23 0 15 72 54
135 72 72 21 106 23 140 7z m-1841 -49 c9 -23 19 -60 22 -84 l6 -42 -11 -21
-11 -21 -31 11 -31 11 -14 33 c-18 43 -18 88 1 124 l16 30 18 0 19 0 16 -41z
m101 -10 c51 -45 46 -87 -7 -58 -16 9 -48 64 -48 84 0 13 22 2 55 -26z m575
-86 c0 -84 -33 -182 -62 -183 -39 -1 -47 65 -17 146 38 100 79 120 79 37z
m108 29 c7 -5 15 -32 19 -60 l6 -52 -29 -30 c-16 -16 -35 -30 -41 -30 l-13 0
0 40 0 40 10 0 10 0 0 50 0 50 13 0 c6 0 18 -4 25 -8z m216 -69 l29 -48 0 -36
c0 -20 -9 -50 -19 -68 l-18 -31 -24 0 c-36 0 -62 19 -78 55 -20 48 -18 63 16
123 l30 52 18 0 17 0 29 -47z m595 6 c68 -38 100 -114 71 -169 l-10 -19 -35 1
-35 1 -17 18 c-31 32 -38 43 -57 94 -10 28 -23 55 -28 62 -5 7 -7 21 -4 31 l7
20 33 -8 c18 -4 52 -18 75 -31z m-439 3 c14 -10 35 -38 48 -63 l23 -46 -7 -16
c-21 -55 -154 61 -154 134 l0 22 33 -7 c17 -3 43 -14 57 -24z" />
    <path d="M4622 6101 l-23 -44 -2 -84 -2 -85 23 -18 22 -18 0 -24 c0 -31 47
-199 59 -211 11 -11 31 -1 31 16 0 7 -11 34 -25 61 -14 27 -25 59 -25 70 0 12
-7 55 -16 96 l-16 75 5 60 c3 33 2 80 -1 105 l-7 45 -23 -44z" />
    <path d="M4903 5495 c15 -14 38 -25 50 -25 l21 0 -19 13 c-11 7 -33 18 -50 25
l-30 12 28 -25z" />
    <path d="M4009 5318 c-55 -45 -143 -153 -181 -224 -13 -23 -39 -70 -59 -105
-59 -103 -98 -234 -84 -279 l7 -22 34 7 34 6 0 -16 c0 -8 5 -15 10 -15 15 0
12 11 -7 32 l-16 18 22 77 c28 99 114 276 185 383 31 46 56 89 56 96 0 7 8 18
19 23 22 12 56 61 42 61 -6 0 -34 -19 -62 -42z" />
    <path d="M3758 4600 c-4 -14 -8 -43 -7 -65 l0 -40 10 25 c6 13 9 42 7 65 l-3
40 -7 -25z" />
    <path d="M5632 4448 l-2 -78 -10 0 -10 0 1 -62 0 -63 15 55 15 54 -4 86 -3 85
-2 -77z" />
    <path d="M4610 3976 c-53 -15 -114 -45 -106 -53 7 -8 195 27 201 37 6 9 -26
31 -42 29 -4 0 -28 -6 -53 -13z" />
    <path d="M7435 5744 c-71 -19 -134 -39 -139 -45 -6 -5 -16 -9 -24 -9 -8 0 -51
-25 -95 -54 -117 -79 -258 -228 -293 -311 l-16 -39 -13 -160 -13 -161 -16 -45
c-9 -25 -20 -80 -23 -122 l-6 -76 12 -49 c6 -26 33 -92 58 -146 l47 -98 -27
-52 c-14 -29 -31 -76 -37 -104 l-11 -51 11 -44 c13 -50 52 -123 122 -228 l50
-75 57 -41 c31 -22 65 -44 76 -49 216 -83 557 -189 650 -201 17 -2 54 -9 84
-15 l54 -11 91 5 c129 8 207 22 263 47 l48 21 63 62 c34 34 62 65 62 70 0 4
26 47 58 95 32 48 66 104 77 125 11 20 23 37 27 37 5 0 8 4 8 9 0 5 22 56 50
113 49 103 57 132 80 279 l12 75 -15 90 c-21 121 -43 181 -83 228 -19 22 -34
43 -34 46 0 4 -30 28 -67 54 -38 26 -86 60 -108 76 -22 16 -59 38 -82 50 l-43
21 -40 56 -40 56 0 61 0 61 -20 70 -20 70 -55 80 c-65 95 -88 121 -137 158
l-36 28 -109 35 -108 35 -110 5 -110 4 -130 -36z m372 -60 c168 -33 232 -75
309 -204 21 -36 41 -67 44 -70 4 -3 14 -21 23 -42 l17 -36 0 -64 c0 -36 -2
-67 -5 -70 -3 -3 -38 1 -78 9 l-72 14 -72 -3 c-40 -2 -73 0 -73 5 0 4 -4 5
-10 2 l-10 -6 0 18 c0 10 -9 37 -19 60 l-20 42 -50 25 -50 26 -87 15 c-148 26
-230 13 -344 -55 -185 -110 -307 -257 -359 -437 -16 -54 -50 -266 -51 -315 0
-4 -11 4 -25 16 l-26 24 11 107 c5 58 12 111 16 116 10 17 34 168 43 269 12
131 20 166 45 193 11 14 22 31 24 38 4 19 126 136 207 199 l67 52 102 35 c177
60 280 69 443 37z m-51 -379 c58 -34 99 -105 62 -105 -7 0 -31 -5 -52 -11
l-39 -11 -56 -53 -56 -52 -45 -7 c-25 -4 -57 -9 -72 -11 -70 -8 -255 -143
-294 -215 -10 -19 -23 -38 -29 -42 -5 -4 -6 -8 -2 -8 4 0 -3 -19 -17 -43 -30
-50 -59 -179 -51 -222 11 -54 47 -143 60 -149 l13 -4 -9 36 c-23 98 13 332 51
332 13 0 13 3 -6 -77 l-16 -68 7 -114 7 -114 22 -36 c21 -34 46 -87 46 -96 0
-22 -172 90 -243 157 l-45 43 -6 30 c-28 122 -28 248 -1 310 8 17 19 57 25 89
12 58 28 105 40 116 3 3 18 25 32 50 15 25 55 75 90 111 l63 67 98 51 c53 28
110 51 125 52 15 0 45 7 67 14 l40 14 75 -5 75 -5 41 -24z m385 -170 c24 -9
51 -18 59 -22 8 -3 19 -7 23 -7 14 -2 79 -70 94 -100 16 -32 36 -98 59 -196
l15 -65 -2 -105 -1 -105 -19 -54 c-10 -29 -31 -69 -46 -88 -15 -19 -32 -43
-38 -52 -5 -9 -16 -27 -25 -41 -9 -14 -22 -39 -28 -57 -6 -18 -46 -76 -90
-130 -109 -133 -145 -159 -246 -174 l-61 -9 -48 12 -47 12 -10 -10 -11 -11 24
-25 23 -25 94 -7 93 -7 11 11 c5 5 17 10 26 10 19 0 118 66 142 94 67 79 169
222 227 322 l70 117 15 68 c19 80 22 175 8 244 -5 28 -10 57 -10 65 0 8 -7 42
-16 74 -9 33 -14 61 -12 64 12 12 113 -64 190 -143 l49 -50 30 -64 30 -63 5
-94 5 -94 -43 -122 c-24 -68 -50 -129 -57 -136 -7 -7 -13 -19 -13 -27 0 -67
-207 -371 -305 -448 -59 -47 -262 -96 -320 -78 -5 2 -32 5 -60 7 -27 1 -81 13
-120 24 -38 12 -117 34 -175 50 -116 31 -345 105 -372 120 -10 6 -25 10 -33
10 -24 0 -105 41 -105 54 0 6 -21 29 -48 52 l-47 41 -56 99 c-68 120 -69 125
-54 200 l12 59 15 3 c9 2 44 -17 78 -42 70 -52 196 -115 246 -123 18 -3 32 -9
29 -13 -4 -7 96 -92 145 -123 l25 -15 80 -3 80 -3 51 -23 c28 -13 62 -23 75
-24 35 -1 151 35 147 46 l-3 10 -60 -3 c-114 -6 -160 14 -83 37 121 37 187 89
235 186 l34 70 -6 45 c-4 24 -16 57 -26 72 l-20 27 25 7 24 6 12 29 12 29 -7
27 c-3 16 -13 36 -22 45 l-15 16 11 21 c6 11 11 38 11 60 l0 41 -25 16 -25 16
-33 -12 c-17 -7 -46 -26 -62 -42 -17 -15 -34 -28 -39 -28 -4 0 -23 -12 -42
-26 l-34 -26 -15 6 c-19 7 -19 20 1 62 l16 33 44 22 c25 12 52 32 61 45 l16
25 -6 51 -6 51 -23 33 c-24 36 -102 83 -152 93 l-30 7 38 22 c21 13 59 28 85
34 25 6 55 14 66 19 11 4 70 8 131 8 l111 1 44 -15z m-410 -171 c32 -19 62
-66 72 -114 l6 -25 -35 -25 c-20 -14 -48 -35 -63 -47 l-27 -21 -16 9 c-9 5
-39 13 -65 18 l-48 9 -12 -10 -13 -10 0 -58 0 -57 20 -18 c25 -23 25 -33 -1
-61 l-21 -23 -6 -46 -5 -46 21 -22 c11 -12 22 -37 24 -56 l3 -34 25 -18 c35
-25 136 -53 189 -51 l44 1 17 16 c22 20 33 19 48 -6 l14 -21 -34 -35 c-39 -41
-82 -65 -160 -87 l-56 -16 -74 0 -73 0 -40 19 c-65 30 -130 117 -173 234 l-22
58 -6 82 -6 82 12 105 c6 58 12 115 13 127 4 48 71 94 212 145 l80 29 62 -4
62 -5 32 -18z m-87 -287 c20 -18 36 -41 36 -50 0 -24 -13 -21 -40 8 -13 14
-29 25 -36 25 -12 0 -34 29 -34 44 0 17 42 2 74 -27z m330 19 c-12 -31 -134
-105 -172 -106 l-13 0 3 18 3 17 21 1 c47 2 74 16 100 49 l26 35 19 0 18 0 -5
-14z m-214 -146 c0 -17 -18 -40 -32 -40 -10 0 -11 74 -1 84 9 9 33 -23 33 -44z
m220 0 l15 -10 -18 -14 -18 -14 -37 3 c-20 1 -49 -1 -65 -6 -17 -5 -34 -6 -39
-3 l-10 6 10 10 c25 25 138 44 162 28z m-340 -6 c0 -15 -43 -64 -56 -64 -20 0
-17 13 11 44 22 24 45 34 45 20z m84 -60 c23 -9 20 -29 -9 -48 -28 -19 -71
-21 -81 -4 l-7 11 29 24 c30 24 42 27 68 17z m184 -47 c37 -18 74 -117 45
-117 -25 0 -123 96 -123 120 0 20 32 19 78 -3z m-123 -63 c29 -19 39 -42 24
-60 l-11 -14 -47 0 -46 0 -42 20 c-51 23 -55 40 -10 41 25 0 62 10 105 28 1 0
13 -6 27 -15z" />
    <path d="M6745 5381 c-115 -100 -189 -191 -244 -297 l-43 -86 -14 -99 -14 -99
16 -117 c20 -149 20 -199 1 -259 -8 -27 -23 -102 -33 -166 l-18 -118 16 -72
c9 -40 26 -100 38 -133 l22 -60 67 -65 c36 -36 111 -96 166 -133 l100 -67 117
-30 c65 -17 133 -37 152 -45 l35 -15 46 7 46 6 -4 11 c-2 6 -21 14 -43 17
-181 30 -407 139 -530 257 l-39 38 -48 96 -48 95 -6 54 -5 54 27 159 27 159
-7 76 c-4 42 -11 99 -16 126 -5 28 -10 97 -10 155 l0 105 43 82 c79 150 230
339 288 358 18 6 44 61 35 75 -12 20 -32 9 -120 -69z" />
    <path d="M8633 5173 c-7 -2 -13 -11 -13 -18 0 -7 6 -15 13 -17 6 -2 45 -38 85
-81 l73 -77 43 -93 c23 -50 51 -121 61 -157 l19 -65 0 -135 1 -135 -19 -60
c-22 -72 -90 -191 -122 -211 -12 -8 -28 -29 -34 -45 l-13 -30 11 -11 10 -10
34 11 33 12 36 47 c42 54 100 180 124 267 l16 60 6 120 5 120 -10 55 c-37 196
-270 489 -359 453z" />
    <path d="M9055 3409 c-50 -34 -138 -76 -175 -84 -50 -10 -240 -74 -272 -91
-14 -8 -33 -14 -42 -14 -15 0 -106 -26 -196 -57 -25 -9 -68 -31 -97 -49 -62
-41 -247 -141 -277 -150 -11 -3 -41 -16 -66 -27 l-45 -21 -115 1 -115 1 -115
43 -115 43 -65 3 -65 4 47 -30 c27 -17 53 -31 58 -31 6 0 60 -20 122 -45 61
-24 136 -49 166 -55 l55 -10 64 10 c120 19 198 41 233 65 19 13 109 60 200
104 l165 80 230 76 c127 42 262 92 301 112 72 36 184 117 184 134 0 16 -34 10
-65 -12z" />
    <path d="M3246 2472 c-8 -13 3 -19 114 -65 305 -126 340 -143 570 -287 41 -26
104 -62 140 -80 36 -18 79 -44 97 -57 l31 -24 6 9 c16 27 -328 256 -509 338
-33 14 -91 41 -130 59 -90 42 -249 104 -285 111 l-28 6 -6 -10z" />
    <path d="M2340 2420 c0 -17 79 -85 139 -120 31 -18 86 -52 122 -76 66 -42 131
-75 179 -89 37 -11 157 -73 219 -112 30 -20 71 -41 90 -48 20 -7 63 -25 96
-39 33 -15 81 -31 107 -36 25 -5 89 -27 141 -50 52 -22 105 -40 118 -40 13 0
57 -7 98 -15 72 -15 126 -15 66 0 -16 4 -34 11 -40 15 -5 5 -39 16 -75 25 -36
9 -101 30 -145 47 -44 17 -116 43 -160 58 -44 15 -123 48 -175 74 -92 44 -106
52 -161 88 -14 9 -56 28 -94 43 -85 32 -231 110 -357 191 -137 89 -168 104
-168 84z" />
    <path d="M1390 6910 l0 -24 12 12 12 12 -12 12 -12 12 0 -24z" />
    <path d="M1082 3280 c0 -14 2 -19 5 -12 2 6 2 18 0 25 -3 6 -5 1 -5 -13z" />
    <path d="M3175 860 c-3 -5 -1 -10 4 -10 6 0 11 5 11 10 0 6 -2 10 -4 10 -3 0
-8 -4 -11 -10z" />
    <path d="M1710 480 c0 -5 5 -10 10 -10 6 0 10 5 10 10 0 6 -4 10 -10 10 -5 0
-10 -4 -10 -10z" />
  </g>
</svg>